<?xml version="1.0" encoding="UTF-8"?>
<svg width="120px" height="40px" viewBox="0 0 120 40" version="1.1" xmlns="http://www.w3.org/2000/svg" xmlns:xlink="http://www.w3.org/1999/xlink">
    <title>Download_on_the_App_Store_Badge_US-UK_RGB_blk_092917</title>
    <g id="Unauthenticated" stroke="none" stroke-width="1" fill="none" fill-rule="evenodd">
        <g id="Desktop-Menu-(EN)" transform="translate(-854.000000, -202.000000)" fill-rule="nonzero">
            <g id="Group-5" transform="translate(683.000000, 144.000000)">
                <g id="Group-4" transform="translate(162.000000, 0.000000)">
                    <g id="Download_on_the_App_Store_Badge_US-UK_RGB_blk_092917" transform="translate(9.000000, 58.000000)">
                        <g id="Group">
                            <g id="Path">
                                <path d="M110.131024,1.00613962e-16 L9.53435571,1.00613962e-16 C9.16766818,1.00613962e-16 8.8053805,1.00613962e-16 8.43966294,0.00213 C8.13352335,0.00413 7.82982368,0.00994 7.5207442,0.01483 C6.84928071,0.0227318036 6.17939629,0.0818062599 5.51691235,0.19154 C4.85535894,0.303662628 4.21452917,0.51504574 3.61609701,0.81854 C3.01839675,1.12460171 2.47226093,1.52229753 1.99750206,1.9972 C1.52025079,2.47076699 1.122425,3.01814638 0.819322132,3.61829 C0.515382712,4.21723912 0.304630137,4.8590683 0.19434339,5.52161 C0.0830081178,6.18331491 0.023097595,6.85265054 0.0151494847,7.52361 C0.00586980035,7.83021 0.00488983368,8.13783 0,8.44447 L0,31.55873 C0.00488983368,31.86923 0.00586980035,32.17003 0.0151494847,32.48063 C0.0231000323,33.1515562 0.0830105561,33.8208584 0.19434339,34.48253 C0.304325602,35.145459 0.515090638,35.7876566 0.819322132,36.38683 C1.12228738,36.9850329 1.52016911,37.5301962 1.99750206,38.00113 C2.47046079,38.478144 3.01694962,38.8761104 3.61609701,39.17983 C4.21452462,39.4841365 4.8552853,39.6967778 5.51691235,39.81063 C6.17950891,39.9194847 6.84932444,39.9785832 7.5207442,39.98743 C7.82982368,39.99423 8.13352335,39.99813 8.43966294,39.99813 C8.8053705,40.00013 9.16768818,40.00013 9.53435571,40.00013 L110.131024,40.00013 C110.490412,40.00013 110.855599,40.00013 111.214987,39.99813 C111.519677,39.99813 111.832166,39.99423 112.136856,39.98743 C112.807006,39.9790537 113.475561,39.9199515 114.136788,39.81063 C114.800549,39.6959764 115.443607,39.4833914 116.044923,39.17983 C116.64353,38.8759346 117.189514,38.4779791 117.662068,38.00113 C118.138169,37.5283518 118.536901,36.9835873 118.843628,36.38683 C119.145576,35.7872208 119.354335,35.1450745 119.462707,34.48253 C119.574218,33.8207676 119.636254,33.1516143 119.6483,32.48063 C119.6522,32.17003 119.6522,31.86923 119.6522,31.55873 C119.66,31.19543 119.66,30.83413 119.66,30.46493 L119.66,9.53626 C119.66,9.17005 119.66,8.80677 119.6522,8.44447 C119.6522,8.13783 119.6522,7.83021 119.6483,7.52357 C119.636257,6.85255244 119.57422,6.18336567 119.462707,5.52157 C119.354033,4.8594116 119.145287,4.21763328 118.843628,3.61825 C118.226373,2.41532608 117.247585,1.4361554 116.044923,0.81845 C115.443605,0.51569738 114.800479,0.30437041 114.136788,0.19145 C113.475675,0.0812327831 112.807051,0.0221377649 112.136856,0.01469 C111.832166,0.00981 111.519677,0.00395 111.214987,0.002 C110.855599,1.00613962e-16 110.490412,1.00613962e-16 110.131024,1.00613962e-16 L110.131024,1.00613962e-16 Z" fill="#A6A6A6"></path>
                                <path d="M8.44454278,39.12513 C8.13987314,39.12513 7.84256325,39.12123 7.54028353,39.11443 C6.9140866,39.1062707 6.28935325,39.051755 5.67120711,38.95133 C5.09481701,38.8520582 4.53644995,38.6673945 4.01452345,38.40343 C3.49738275,38.1416527 3.02570885,37.7984029 2.61757097,37.38683 C2.20352538,36.9801053 1.85881351,36.508374 1.59709568,35.99033 C1.33249394,35.4689191 1.14937379,34.9100296 1.05411415,34.33313 C0.951242004,33.7132449 0.895583912,33.0864432 0.887619809,32.45813 C0.881280025,32.24723 0.872980307,31.54503 0.872980307,31.54503 L0.872980307,8.44447 C0.872980307,8.44447 0.881820007,7.75306 0.887669808,7.54993 C0.895295375,6.92261205 0.950629814,6.2967831 1.05319418,5.67786 C1.14862966,5.09938008 1.33189157,4.53887887 1.59663569,4.01576 C1.85739165,3.49807385 2.20018975,3.02599029 2.61174117,2.61781 C3.02283001,2.20575142 3.4960127,1.86073412 4.01403347,1.59534 C4.53476043,1.3322236 5.09207225,1.14886255 5.66729724,1.0514 C6.28747348,0.949966139 6.91437566,0.895126084 7.54274345,0.88734 L8.44503276,0.87513 L111.210087,0.87513 L112.123156,0.88783 C112.745808,0.895229198 113.367016,0.949580006 113.981493,1.05042 C114.562541,1.14910507 115.125661,1.33374553 115.652336,1.59827 C116.690119,2.13311605 117.534544,2.97929295 118.067254,4.0182 C118.327773,4.53770756 118.508208,5.09363676 118.602436,5.66712 C118.706222,6.29112138 118.764307,6.92186834 118.77623,7.55433 C118.77913,7.83753 118.77913,8.14173 118.77913,8.44447 C118.78703,8.81947 118.78703,9.1764 118.78703,9.53626 L118.78703,30.46493 C118.78703,30.82823 118.78703,31.18273 118.77913,31.54013 C118.77913,31.86533 118.77913,32.16323 118.77523,32.46983 C118.763566,33.0910057 118.706448,33.7104942 118.604336,34.32333 C118.511029,34.9043912 118.328906,35.4676431 118.064354,35.99333 C117.800786,36.5057511 117.458054,36.9733962 117.048789,37.37903 C116.640284,37.7928146 116.167777,38.1380727 115.649436,38.40153 C115.12422,38.6675237 114.561929,38.8528703 113.981493,38.95133 C113.363394,39.052291 112.7386,39.1068102 112.112357,39.11443 C111.819467,39.12123 111.512777,39.12513 111.214987,39.12513 L110.131024,39.12713 L8.44454278,39.12513 Z" fill="#000000"></path>
                            </g>
                            <g id="_Group_" transform="translate(9.971228, 8.720400)" fill="#FFFFFF">
                                <g id="_Group_3" transform="translate(0.000000, 0.000000)">
                                    <path d="M14.7968093,11.58041 C14.8186655,9.88393912 15.7080212,8.31691611 17.1532891,7.42835 C16.2373929,6.12024277 14.7583226,5.32060835 13.1622649,5.27067 C11.483082,5.09441 9.85518735,6.2755 8.99950646,6.2755 C8.12726613,6.2755 6.80981094,5.28817 5.39112919,5.31736 C3.52451394,5.37766842 1.82650761,6.41325548 0.918361323,8.04523 C-1.0155729,11.39365 0.426968037,16.3147 2.27951503,19.02131 C3.2063835,20.34666 4.28962666,21.82711 5.70702845,21.77461 C7.09404127,21.71708 7.61206365,20.89013 9.2863067,20.89013 C10.9450103,20.89013 11.4310238,21.77461 12.8771846,21.74123 C14.3655139,21.71707 15.3032321,20.40999 16.1975816,19.07209 C16.8635351,18.1277297 17.3759852,17.0840059 17.71595,15.97958 C15.9482667,15.2319113 14.7988724,13.4997643 14.7968093,11.58041 L14.7968093,11.58041 Z" id="_Path_"></path>
                                    <path d="M12.0652722,3.49062 C12.8767712,2.51641191 13.2765659,1.26423245 13.1797543,-1.77635684e-15 C11.9399643,0.130220487 10.7947456,0.722779675 9.97228337,1.65961 C9.16013972,2.58391903 8.74870962,3.79316268 8.82861227,5.021 C10.0850264,5.03393677 11.2779651,4.46988322 12.0652722,3.49062 L12.0652722,3.49062 Z" id="_Path_2"></path>
                                </g>
                                <g id="Group" transform="translate(24.454871, 9.150770)">
                                    <path d="M7.87473216,9.26861 L3.14149315,9.26861 L2.00481181,12.62506 L7.10518569e-15,12.62506 L4.48324751,0.20706 L6.56617666,0.20706 L11.0494242,12.62506 L9.01042353,12.62506 L7.87473216,9.26861 Z M3.63170647,7.71978 L7.38357886,7.71978 L5.53403177,2.27251 L5.48227353,2.27251 L3.63170647,7.71978 Z" id="Shape"></path>
                                    <path d="M20.7317149,8.09869 C20.7317149,10.91217 19.2259061,12.71978 16.9535234,12.71978 C15.7789486,12.7812246 14.6725633,12.1659907 14.1049902,11.13578 L14.0619917,11.13578 L14.0619917,15.62016 L12.2036549,15.62016 L12.2036549,3.57134 L14.0024537,3.57134 L14.0024537,5.0772 L14.0366326,5.0772 C14.6294207,4.05344792 15.736999,3.43847884 16.9193445,3.47661 C19.2170764,3.47662 20.7317149,5.29302 20.7317149,8.09869 Z M18.8216198,8.09869 C18.8216198,6.26569 17.874382,5.0606 16.4291212,5.0606 C15.0092495,5.0606 14.054202,6.29107 14.054202,8.09869 C14.054202,9.92291 15.0092495,11.14459 16.4291212,11.14459 C17.874392,11.14459 18.8216198,9.9483 18.8216198,8.09869 Z" id="Shape"></path>
                                    <path d="M30.6962159,8.09869 C30.6962159,10.91217 29.1904071,12.71978 26.9180244,12.71978 C25.7434497,12.7812246 24.6370644,12.1659907 24.0694913,11.13578 L24.0264928,11.13578 L24.0264928,15.62016 L22.168156,15.62016 L22.168156,3.57134 L23.9669148,3.57134 L23.9669148,5.0772 L24.0010936,5.0772 C24.5938861,4.05344854 25.7014686,3.43848307 26.8838156,3.47662 C29.1816174,3.47662 30.6962159,5.29302 30.6962159,8.09869 Z M28.7861309,8.09869 C28.7861309,6.26569 27.8388831,5.0606 26.3936223,5.0606 C24.9737506,5.0606 24.0187031,6.29107 24.0187031,8.09869 C24.0187031,9.92291 24.9737506,11.14459 26.3936223,11.14459 C27.8388931,11.14459 28.7861309,9.9483 28.7861309,8.09869 L28.7861309,8.09869 Z" id="Shape"></path>
                                    <path d="M37.2819319,9.16509 C37.4196272,10.39654 38.6158866,11.20509 40.250581,11.20509 C41.8169377,11.20509 42.9438493,10.3965 42.9438493,9.28614 C42.9438493,8.32227 42.2641825,7.74514 40.6548672,7.34962 L39.0455519,6.96192 C36.7653595,6.41114 35.7067955,5.34473 35.7067955,3.61426 C35.7067955,1.47168 37.573922,0 40.2251918,0 C42.8491026,0 44.6478914,1.47168 44.7084393,3.61426 L42.8325031,3.61426 C42.720207,2.375 41.6958218,1.62696 40.1988027,1.62696 C38.7017836,1.62696 37.6774085,2.3838 37.6774085,3.48536 C37.6774085,4.36329 38.3316862,4.87989 39.9322118,5.27536 L41.3003253,5.6113 C43.8480886,6.21384 44.9066526,7.2373 44.9066526,9.05368 C44.9066526,11.37692 43.0561255,12.832 40.1128656,12.832 C37.3590493,12.832 35.4997425,11.4111 35.3796266,9.165 L37.2819319,9.16509 Z" id="Path"></path>
                                    <path d="M48.9172762,1.42876 L48.9172762,3.57134 L50.6388976,3.57134 L50.6388976,5.04302 L48.9172762,5.04302 L48.9172762,10.03423 C48.9172762,10.80962 49.2619944,11.17095 50.0187987,11.17095 C50.2231832,11.1673859 50.427237,11.1530326 50.6301079,11.12795 L50.6301079,12.59084 C50.2898478,12.6544196 49.9440021,12.6832145 49.597913,12.67678 C47.7649754,12.67678 47.0501497,11.9883 47.0501497,10.23244 L47.0501497,5.04302 L45.7337945,5.04302 L45.7337945,3.57134 L47.0501297,3.57134 L47.0501297,1.42876 L48.9172762,1.42876 Z" id="Path"></path>
                                    <path d="M51.6359737,8.09869 C51.6359737,5.25006 53.3136466,3.46002 55.9297777,3.46002 C58.5546884,3.46002 60.2245516,5.25002 60.2245516,8.09869 C60.2245516,10.95514 58.5634781,12.73736 55.9297777,12.73736 C53.2970072,12.73736 51.6359737,10.95513 51.6359737,8.09869 Z M58.331056,8.09869 C58.331056,6.14459 57.4355764,4.99127 55.9297677,4.99127 C54.4239589,4.99127 53.5294593,6.15338 53.5294593,8.09869 C53.5294593,10.0606 54.4239589,11.20514 55.9297677,11.20514 C57.4355764,11.20514 58.331056,10.0606 58.331056,8.09869 L58.331056,8.09869 Z" id="Shape"></path>
                                    <path d="M61.7566795,3.57134 L63.5290892,3.57134 L63.5290892,5.11234 L63.5720877,5.11234 C63.8192554,4.12032841 64.728181,3.43759156 65.7497437,3.4766 C65.9639004,3.47585223 66.1774663,3.49911075 66.386442,3.54594 L66.386442,5.28422 C66.1160822,5.20160332 65.8340504,5.16367129 65.5514704,5.17192 C65.0051372,5.14975544 64.4764079,5.36749473 64.1041111,5.76796597 C63.7318143,6.16843722 63.5531449,6.71163074 63.6150163,7.25492 L63.6150163,12.62504 L61.7566795,12.62504 L61.7566795,3.57134 Z" id="Path"></path>
                                    <path d="M74.9544806,9.96587 C74.7044891,11.60942 73.1039535,12.73735 71.0561732,12.73735 C68.4224727,12.73735 66.7877683,10.9727 66.7877683,8.14165 C66.7877683,5.30181 68.4312624,3.46001 70.9780558,3.46001 C73.4828506,3.46001 75.057997,5.18071 75.057997,7.92583 L75.057997,8.56255 L68.6636845,8.56255 L68.6636845,8.67485 C68.603984,9.34888162 68.8367202,10.0160794 69.3026927,10.5067299 C69.7686652,10.9973804 70.4229622,11.2641933 71.0991517,11.2393 C72.0009633,11.3237996 72.8511952,10.8059377 73.1899006,9.96586 L74.9544806,9.96587 Z M68.6724566,7.26373 L73.1986803,7.26373 C73.2324046,6.65805749 73.0119432,6.06578308 72.590411,5.62959155 C72.1688789,5.19340001 71.584496,4.95284041 70.9780558,4.96587 C70.3668184,4.96222223 69.7794473,5.20289463 69.3464968,5.63439324 C68.9135464,6.06589186 68.6708906,6.65246292 68.6724566,7.26373 L68.6724566,7.26373 Z" id="Shape"></path>
                                </g>
                            </g>
                        </g>
                        <g id="_Group_4" transform="translate(30.669877, 8.437130)" fill="#FFFFFF">
                            <g id="Group" transform="translate(0.000000, 0.000000)">
                                <path d="M2.1551967,0.294 C2.94411642,0.237384181 3.71684584,0.537547428 4.26069637,1.11187182 C4.8045469,1.68619621 5.06219369,2.47414479 4.9627212,3.25884 C4.9627212,5.16509 3.93248624,6.26084 2.1551967,6.26084 L7.10518569e-15,6.26084 L7.10518569e-15,0.294 L2.1551967,0.294 Z M0.926718479,5.417 L2.05168022,5.417 C2.61548298,5.45070201 3.16445889,5.22855901 3.5461779,4.81225179 C3.9278969,4.39594457 4.1017201,3.82979442 4.01938329,3.271 C4.09572971,2.71452453 3.91940327,2.15304622 3.53863072,1.74013398 C3.15785816,1.32722175 2.61248681,1.1060863 2.05168022,1.13721 L0.926718479,1.13721 L0.926718479,5.417 Z" id="Shape"></path>
                                <path d="M6.0095556,4.00734 C5.93234535,3.20022505 6.31934872,2.41911193 7.00825756,1.99159737 C7.69716639,1.5640828 8.56887036,1.5640828 9.25777919,1.99159737 C9.94668802,2.41911193 10.3336914,3.20022505 10.2564811,4.00734 C10.3351604,4.81532226 9.94851028,5.59795038 9.25899062,6.0263853 C8.56947096,6.45482022 7.69656579,6.45482022 7.00704613,6.0263853 C6.31752647,5.59795038 5.93087633,4.81532226 6.0095556,4.00734 Z M9.34245223,4.00734 C9.34245223,3.03127 8.90397715,2.46047 8.13448332,2.46047 C7.36204959,2.46047 6.92752437,3.03127 6.92752437,4.00735 C6.92752437,4.99124 7.36207959,5.55764 8.13448332,5.55764 C8.90399715,5.55764 9.34245223,4.98732 9.34245223,4.00734 L9.34245223,4.00734 Z" id="Shape"></path>
                                <polygon id="Path" points="15.9017991 6.26075 14.9799605 6.26075 14.0493321 2.94434 13.9790245 2.94434 13.0522961 6.26075 12.1392371 6.26075 10.8980693 1.75782 11.7994087 1.75782 12.6060212 5.19382 12.672429 5.19382 13.5981775 1.75782 14.4506885 1.75782 15.376437 5.19382 15.4467446 5.19382 16.2494473 1.75782 17.1380871 1.75782"></polygon>
                                <path d="M18.1819916,1.75782 L19.0374325,1.75782 L19.0374325,2.47315 L19.1038402,2.47315 C19.3347672,1.94647794 19.8743769,1.62430747 20.4475445,1.6709 C20.8913462,1.63753177 21.3262405,1.8077899 21.6294351,2.13360207 C21.9326297,2.45941424 22.0712224,2.90542376 22.0060815,3.3457 L22.0060815,6.2607 L21.1174417,6.2607 L21.1174417,3.56886 C21.1174417,2.84523 20.8030024,2.48536 20.1457948,2.48536 C19.8447709,2.47133912 19.5526351,2.58948257 19.3459766,2.80881678 C19.1393181,3.028151 19.0387475,3.32680101 19.0706313,3.62647 L19.0706313,6.26075 L18.1819916,6.26075 L18.1819916,1.75782 Z" id="Path"></path>
                                <polygon id="Path" points="23.4220533 0 24.3106931 0 24.3106931 6.26074 23.4220533 6.26074"></polygon>
                                <path d="M25.5460011,4.00734 C25.4688502,3.20017225 25.8559146,2.41903936 26.5448745,1.9915182 C27.2338345,1.56399704 28.1055833,1.56399704 28.7945432,1.9915182 C29.4835032,2.41903936 29.8705676,3.20017225 29.7934166,4.00734 C29.871996,4.81535119 29.485275,5.59795719 28.7957211,6.02637324 C28.1061672,6.45478929 27.2332505,6.45478929 26.5436966,6.02637324 C25.8541427,5.59795719 25.4674218,4.81535119 25.5460011,4.00734 L25.5460011,4.00734 Z M28.8788977,4.00734 C28.8788977,3.03127 28.4404227,2.46047 27.6709288,2.46047 C26.8984951,2.46047 26.4639699,3.03127 26.4639699,4.00735 C26.4639699,4.99124 26.8985251,5.55764 27.6709288,5.55764 C28.4404327,5.55764 28.8788977,4.98732 28.8788977,4.00734 L28.8788977,4.00734 Z" id="Shape"></path>
                                <path d="M30.7289348,4.98732 C30.7289348,4.17677 31.3324343,3.70949 32.4036779,3.64308 L33.6233664,3.57277 L33.6233664,3.1841 C33.6233664,2.70851 33.3089271,2.43996 32.7015277,2.43996 C32.2054546,2.43996 31.8617163,2.62209 31.7630796,2.94045 L30.9027589,2.94045 C30.9935758,2.16701 31.7210911,1.67092 32.7425363,1.67092 C33.8714079,1.67092 34.5081063,2.23292 34.5081063,3.1841 L34.5081063,6.26076 L33.6526654,6.26076 L33.6526654,5.62795 L33.5823578,5.62795 C33.2918162,6.09007633 32.7751389,6.36016323 32.2298638,6.33495 C31.8476129,6.37471181 31.4663809,6.25091066 31.1804153,5.99415244 C30.8944497,5.73739423 30.7304408,5.37164331 30.7289348,4.98732 L30.7289348,4.98732 Z M33.6233664,4.60255 L33.6233664,4.22609 L32.5237938,4.2964 C31.9036949,4.3379 31.6224544,4.54884 31.6224544,4.94581 C31.6224544,5.35108 31.9740025,5.58692 32.457426,5.58692 C32.7436024,5.61588986 33.029283,5.52747505 33.2490695,5.34191559 C33.468856,5.15635613 33.6039286,4.88954106 33.6233664,4.60255 Z" id="Shape"></path>
                                <path d="M35.6760265,4.00734 C35.6760265,2.58449 36.4074517,1.68312 37.545103,1.68312 C38.1195602,1.65665013 38.6575927,1.96447287 38.925916,2.47312 L38.9923238,2.47312 L38.9923238,0 L39.8809635,0 L39.8809635,6.26074 L39.0294325,6.26074 L39.0294325,5.54931 L38.9591249,5.54931 C38.6705189,6.05373698 38.1258578,6.35635648 37.545113,6.33495 C36.3996419,6.335 35.6760265,5.43361 35.6760265,4.00734 Z M36.5939953,4.00734 C36.5939953,4.96242 37.04418,5.53713 37.7970844,5.53713 C38.5460589,5.53713 39.0089532,4.95413 39.0089532,4.01125 C39.0089532,3.07277 38.5411991,2.48146 37.7970844,2.48146 C37.0490298,2.48146 36.5939653,3.06007 36.5939653,4.00734 L36.5939953,4.00734 Z" id="Shape"></path>
                                <path d="M43.5575985,4.00734 C43.4803882,3.20022505 43.8673916,2.41911193 44.5563004,1.99159737 C45.2452093,1.5640828 46.1169132,1.5640828 46.8058221,1.99159737 C47.4947309,2.41911193 47.8817343,3.20022505 47.804524,4.00734 C47.8832033,4.81532226 47.4965532,5.59795038 46.8070335,6.0263853 C46.1175138,6.45482022 45.2446087,6.45482022 44.555089,6.0263853 C43.8655693,5.59795038 43.4789192,4.81532226 43.5575985,4.00734 L43.5575985,4.00734 Z M46.8904851,4.00734 C46.8904851,3.03127 46.45202,2.46047 45.6825262,2.46047 C44.9100925,2.46047 44.4755673,3.03127 44.4755673,4.00735 C44.4755673,4.99124 44.9101225,5.55764 45.6825262,5.55764 C46.45203,5.55764 46.8904851,4.98732 46.8904851,4.00734 Z" id="Shape"></path>
                                <path d="M48.9968635,1.75782 L49.8523044,1.75782 L49.8523044,2.47315 L49.9187121,2.47315 C50.1496391,1.94647794 50.6892488,1.62430747 51.2624164,1.6709 C51.7062181,1.63753177 52.1411124,1.8077899 52.444307,2.13360207 C52.7475016,2.45941424 52.8860943,2.90542376 52.8209534,3.3457 L52.8209534,6.2607 L51.9323136,6.2607 L51.9323136,3.56886 C51.9323136,2.84523 51.6178743,2.48536 50.9606667,2.48536 C50.6596427,2.47133912 50.367507,2.58948257 50.1608485,2.80881678 C49.9541899,3.028151 49.8536194,3.32680101 49.8855032,3.62647 L49.8855032,6.26075 L48.9968635,6.26075 L48.9968635,1.75782 Z" id="Path"></path>
                                <path d="M57.8422726,0.63673 L57.8422726,1.77833 L58.8178294,1.77833 L58.8178294,2.52687 L57.8422726,2.52687 L57.8422726,4.8423 C57.8422726,5.31398 58.036606,5.52052 58.478971,5.52052 C58.5922227,5.52015754 58.7053607,5.51330966 58.8178294,5.50001 L58.8178294,6.24024 C58.6582444,6.26879072 58.496556,6.28398004 58.3344459,6.28565 C57.3461995,6.28565 56.9526529,5.93799 56.9526529,5.06983 L56.9526529,2.52683 L56.2378372,2.52683 L56.2378372,1.77829 L56.9526529,1.77829 L56.9526529,0.63673 L57.8422726,0.63673 Z" id="Path"></path>
                                <path d="M60.0316481,0 L60.9124782,0 L60.9124782,2.48145 L60.9827858,2.48145 C61.2248053,1.95016856 61.773859,1.62758754 62.3557391,1.67481 C62.7970207,1.65079728 63.2260278,1.82480371 63.5259086,2.14943385 C63.8257893,2.47406399 63.9653093,2.91550564 63.9064663,3.35352 L63.9064663,6.26075 L63.0169366,6.26075 L63.0169366,3.57275 C63.0169366,2.85351 62.681948,2.48925 62.0540794,2.48925 C61.7449188,2.46389367 61.4403293,2.57629096 61.22174,2.7963935 C61.0031507,3.01649605 60.8928508,3.32186031 60.9203279,3.63085 L60.9203279,6.26075 L60.0316881,6.26075 L60.0316481,0 Z" id="Path"></path>
                                <path d="M69.0879801,5.04493 C68.8387956,5.89430948 68.0168654,6.44310304 67.1368765,6.34766 C66.5364608,6.3635102 65.9594279,6.1146307 65.5588784,5.66705516 C65.1583288,5.21947963 64.9747564,4.61845594 65.0568672,4.02345 C64.9769373,3.42679048 65.1598219,2.82480373 65.558141,2.37344696 C65.9564601,1.92209018 66.5310191,1.66577675 67.1329666,1.67091 C68.385854,1.67091 69.1416883,2.52691 69.1416883,3.94091 L69.1416883,4.251 L65.9621064,4.251 L65.9621064,4.3008 C65.9339694,4.63494014 66.0480842,4.96544775 66.2763865,5.2110407 C66.5046888,5.45663365 66.8259949,5.59452392 67.1612856,5.5908 C67.5960427,5.64299468 68.019249,5.42733304 68.2325392,5.0449 L69.0879801,5.04493 Z M65.9620864,3.59376 L68.2364191,3.59376 C68.2590712,3.28816044 68.1516204,2.98720507 67.9405461,2.76505909 C67.7294717,2.54291311 67.4344038,2.42023623 67.1280568,2.42726 C66.8175593,2.42335891 66.5186455,2.54502124 66.2991213,2.76464888 C66.0795972,2.98427653 65.9580697,3.28325374 65.9621064,3.59376 L65.9620864,3.59376 Z" id="Shape"></path>
                            </g>
                        </g>
                    </g>
                </g>
            </g>
        </g>
    </g>
</svg>