<?xml version="1.0" encoding="utf-8"?>
<!-- Generator: Adobe Illustrator 25.4.1, SVG Export Plug-In . SVG Version: 6.00 Build 0)  -->
<svg version="1.1" id="Layer_1" xmlns="http://www.w3.org/2000/svg" xmlns:xlink="http://www.w3.org/1999/xlink" x="0px" y="0px"
	 viewBox="0 0 120.8 35.4" style="enable-background:new 0 0 120.8 35.4;" xml:space="preserve">
<style type="text/css">
	.st0{fill:#FFFFFF;fill-opacity:0;}
	.st1{fill:#A6A6A6;}
	.st2{fill:#FFFFFF;stroke:#FFFFFF;stroke-width:0.5;}
	.st3{fill:#FFFFFF;}
	.st4{fill:url(#Path_00000164484987868420995020000012793769619403307412_);}
	.st5{fill:url(#Path_00000106845459131226769170000007285023104346260618_);}
	.st6{fill:url(#Path_00000155869570828388686080000000534113103223101063_);}
	.st7{fill:url(#Path_00000131364585875273991580000010328334966907899325_);}
	.st8{opacity:0.2;enable-background:new    ;}
	.st9{opacity:0.12;enable-background:new    ;}
	.st10{opacity:0.25;fill:#FFFFFF;enable-background:new    ;}
</style>
<g id="Unauthenticated">
	<g id="Desktop-Menu-_x28_EN_x29_" transform="translate(-845.000000, -250.000000)">
		<g id="Group-5" transform="translate(683.000000, 144.000000)">
			<g id="Group-4" transform="translate(162.000000, 0.000000)">
				<g id="google-play-badge" transform="translate(0.000000, 106.000000)">
					<rect id="Rectangle" x="-8.6" y="-8.3" class="st0" width="138" height="52"/>
					<path id="Path" d="M116,35.1H4.7c-2.4,0-4.5-1.9-4.5-4.3v-26c0-2.4,2-4.3,4.5-4.3H116c2.4,0,4.5,1.9,4.5,4.3v26
						C120.5,33.1,118.5,35.1,116,35.1z"/>
					<path id="Shape" class="st1" d="M116,1.1c2.1,0,3.7,1.6,3.7,3.6v26c0,2-1.7,3.6-3.7,3.6H4.7c-2.1,0-3.7-1.6-3.7-3.6v-26
						c0-2,1.7-3.6,3.7-3.6H116 M116,0.4H4.7c-2.4,0-4.5,1.9-4.5,4.3v26c0,2.4,2,4.3,4.5,4.3H116c2.4,0,4.5-1.9,4.5-4.3v-26
						C120.5,2.3,118.5,0.4,116,0.4L116,0.4z"/>
					<g id="Group" transform="translate(46.328571, 14.444444)">
						<path id="Path_00000148636940079947190560000018140555633521148073_" class="st2" d="M-3.3-5.2c0,0.8-0.2,1.4-0.7,1.8
							c-0.5,0.5-1.2,0.8-2,0.8c-0.8,0-1.4-0.3-2-0.8s-0.8-1.2-0.8-2.1c0-0.8,0.3-1.5,0.8-2.1s1.2-0.8,2-0.8c0.4,0,0.7,0.1,1.1,0.2
							s0.6,0.4,0.8,0.6l-0.5,0.5c-0.4-0.4-0.8-0.7-1.5-0.7c-0.6,0-1,0.2-1.5,0.6C-7.7-6.6-7.9-6-7.9-5.4s0.2,1.2,0.6,1.6
							c0.4,0.4,0.9,0.6,1.5,0.6c0.6,0,1.1-0.2,1.5-0.6C-4.1-4-4-4.4-3.9-4.9h-1.9v-0.7h2.6C-3.3-5.4-3.3-5.3-3.3-5.2z"/>
						<polygon id="Path_00000016053506786998244870000006107795902662969243_" class="st2" points="0.8,-7.5 -1.6,-7.5 -1.6,-5.7 
							0.6,-5.7 0.6,-5.1 -1.6,-5.1 -1.6,-3.3 0.8,-3.3 0.8,-2.6 -2.3,-2.6 -2.3,-8.2 0.8,-8.2 						"/>
						<polygon id="Path_00000124145586245407236460000006737593343979466165_" class="st2" points="3.7,-2.6 3,-2.6 3,-7.5 
							1.6,-7.5 1.6,-8.2 5.2,-8.2 5.2,-7.5 3.7,-7.5 3.7,-2.6 						"/>
						<polygon id="Path_00000059273600901819535890000011587379289015597232_" class="st2" points="7.9,-2.6 7.9,-8.2 8.5,-8.2 
							8.5,-2.6 						"/>
						<polygon id="Path_00000053539777988949234350000001747984395092349057_" class="st2" points="11.6,-2.6 10.9,-2.6 10.9,-7.5 
							9.4,-7.5 9.4,-8.2 13.1,-8.2 13.1,-7.5 11.6,-7.5 11.6,-2.6 						"/>
						<path id="Shape_00000005257575728218468940000009497581275751222677_" class="st2" d="M20-3.3c-0.5,0.6-1.2,0.8-2,0.8
							c-0.8,0-1.4-0.3-2-0.8c-0.5-0.6-0.8-1.2-0.8-2s0.3-1.5,0.8-2c0.5-0.6,1.2-0.8,2-0.8c0.8,0,1.4,0.3,2,0.8
							c0.5,0.6,0.8,1.2,0.8,2C20.8-4.6,20.5-3.9,20-3.3z M16.6-3.8C17-3.4,17.5-3.2,18-3.2s1.1-0.2,1.4-0.6c0.4-0.4,0.6-0.9,0.6-1.6
							S19.9-6.6,19.5-7c-0.4-0.4-0.9-0.6-1.4-0.6S17-7.4,16.6-7C16.2-6.6,16-6,16-5.4S16.2-4.2,16.6-3.8z"/>
						<polygon id="Path_00000057850407353557357150000005654413710533682619_" class="st2" points="21.7,-2.6 21.7,-8.2 22.6,-8.2 
							25.2,-3.8 25.2,-3.8 25.2,-4.9 25.2,-8.2 25.9,-8.2 25.9,-2.6 25.1,-2.6 22.4,-7.1 22.4,-7.1 22.4,-6.1 22.4,-2.6 						"/>
					</g>
					<path id="Shape_00000152262148991436145050000018261814211913388445_" class="st3" d="M61.6,19.8c-2.1,0-3.8,1.5-3.8,3.6
						c0,2.1,1.7,3.6,3.8,3.6c2.1,0,3.8-1.5,3.8-3.6C65.4,21.3,63.7,19.8,61.6,19.8z M61.6,25.6c-1.1,0-2.1-0.9-2.1-2.2
						c0-1.3,1-2.2,2.1-2.2s2.1,0.9,2.1,2.2C63.8,24.7,62.8,25.6,61.6,25.6z M53.4,19.8c-2.1,0-3.8,1.5-3.8,3.6
						c0,2.1,1.7,3.6,3.8,3.6s3.8-1.5,3.8-3.6C57.2,21.3,55.5,19.8,53.4,19.8z M53.4,25.6c-1.1,0-2.1-0.9-2.1-2.2
						c0-1.3,1-2.2,2.1-2.2c1.1,0,2.1,0.9,2.1,2.2C55.5,24.7,54.5,25.6,53.4,25.6z M43.6,20.9v1.5h3.8c-0.1,0.9-0.4,1.5-0.9,1.9
						c-0.6,0.5-1.4,1.1-2.9,1.1c-2.4,0-4.2-1.8-4.2-4.1s1.8-4.1,4.2-4.1c1.3,0,2.2,0.5,2.9,1.1l1.1-1.1c-1-0.9-2.2-1.5-4-1.5
						c-3.2,0-5.9,2.5-5.9,5.6c0,3.1,2.7,5.6,5.9,5.6c1.7,0,3-0.5,4.1-1.6c1.1-1,1.4-2.4,1.4-3.6c0-0.4,0-0.7-0.1-1L43.6,20.9
						L43.6,20.9z M83.6,22.1c-0.3-0.8-1.3-2.3-3.2-2.3c-1.9,0-3.5,1.5-3.5,3.6c0,2,1.6,3.6,3.7,3.6c1.7,0,2.7-1,3.1-1.6l-1.3-0.8
						c-0.4,0.6-1,1-1.8,1s-1.4-0.4-1.8-1.1l5-2L83.6,22.1z M78.5,23.3c0-1.4,1.1-2.1,2-2.1c0.7,0,1.2,0.3,1.4,0.8L78.5,23.3z
						 M74.4,26.8h1.7V16.2h-1.7V26.8z M71.7,20.6L71.7,20.6c-0.4-0.4-1.1-0.8-2-0.8c-1.9,0-3.6,1.6-3.6,3.6c0,2,1.7,3.6,3.6,3.6
						c0.9,0,1.6-0.4,2-0.8h0.1v0.5c0,1.4-0.8,2.1-2,2.1c-1,0-1.6-0.7-1.9-1.3l-1.4,0.6c0.4,1,1.5,2.1,3.3,2.1c1.9,0,3.6-1.1,3.6-3.8
						V20h-1.6L71.7,20.6L71.7,20.6z M69.8,25.6c-1.1,0-2.1-0.9-2.1-2.2c0-1.3,1-2.2,2.1-2.2c1.1,0,2,0.9,2,2.2
						C71.8,24.7,71,25.6,69.8,25.6z M91.4,16.2h-3.9v10.6h1.7v-4h2.3c1.8,0,3.6-1.3,3.6-3.3S93.2,16.2,91.4,16.2z M91.4,21.3h-2.3
						v-3.6h2.3c1.2,0,1.9,1,1.9,1.8S92.7,21.3,91.4,21.3z M101.6,19.8c-1.2,0-2.4,0.5-2.9,1.6l1.5,0.6c0.3-0.6,0.9-0.8,1.5-0.8
						c0.8,0,1.7,0.5,1.7,1.4v0.1c-0.3-0.2-0.9-0.4-1.7-0.4c-1.6,0-3.2,0.8-3.2,2.4c0,1.4,1.3,2.3,2.7,2.3c1.1,0,1.7-0.5,2.1-1h0.1
						v0.8h1.6v-4.1C105,20.8,103.5,19.8,101.6,19.8z M101.4,25.6c-0.5,0-1.3-0.3-1.3-0.9c0-0.8,0.9-1.1,1.7-1.1
						c0.7,0,1.1,0.2,1.5,0.4C103.3,24.9,102.4,25.6,101.4,25.6z M110.8,20l-1.9,4.6h-0.1l-2-4.6h-1.8l2.9,6.4l-1.7,3.6h1.7l4.5-10
						H110.8z M95.9,26.8h1.7V16.2h-1.7V26.8z"/>
					<g id="Group_00000029768769144817169480000017361924651753869499_" transform="translate(18.728571, 15.407407)">
						
							<linearGradient id="Path_00000150066964310763525860000013122261273034024088_" gradientUnits="userSpaceOnUse" x1="-839.1595" y1="519.4934" x2="-839.5264" y2="518.8237" gradientTransform="matrix(11.4709 0 0 -21.5817 9624.6143 11204.6777)">
							<stop  offset="0" style="stop-color:#00A0FF"/>
							<stop  offset="6.574450e-03" style="stop-color:#00A1FF"/>
							<stop  offset="0.2601" style="stop-color:#00BEFF"/>
							<stop  offset="0.5122" style="stop-color:#00D2FF"/>
							<stop  offset="0.7604" style="stop-color:#00DFFF"/>
							<stop  offset="1" style="stop-color:#00E3FF"/>
						</linearGradient>
						
							<path id="Path_00000023998260411467869580000013488360614608734910_" style="fill:url(#Path_00000150066964310763525860000013122261273034024088_);" d="
							M-8-7.9c-0.3,0.3-0.4,0.7-0.4,1.2v19c0,0.5,0.2,0.9,0.4,1.2l0.1,0.1L3,2.9V2.8V2.7L-8-7.9L-8-7.9z"/>
						
							<linearGradient id="Path_00000113345976392171866050000011745871620984496545_" gradientUnits="userSpaceOnUse" x1="-817.6282" y1="473.2268" x2="-820.0098" y2="473.2268" gradientTransform="matrix(9.0205 0 0 -7.3719 7388.1279 3491.3682)">
							<stop  offset="0" style="stop-color:#FFE000"/>
							<stop  offset="0.4087" style="stop-color:#FFBD00"/>
							<stop  offset="0.7754" style="stop-color:#FFA500"/>
							<stop  offset="1" style="stop-color:#FF9C00"/>
						</linearGradient>
						
							<path id="Path_00000005267251987145427440000005270979566296932268_" style="fill:url(#Path_00000113345976392171866050000011745871620984496545_);" d="
							M6.7,6.5L3,2.9V2.8V2.7l3.7-3.6l0.1,0l4.3,2.4c1.2,0.7,1.2,1.8,0,2.5L6.7,6.5L6.7,6.5z"/>
						
							<linearGradient id="Path_00000057839606828431249230000000320919644901918353_" gradientUnits="userSpaceOnUse" x1="-856.4766" y1="496.7646" x2="-857.841" y2="495.7749" gradientTransform="matrix(14.8092 0 0 -11.0741 12687.458 5506.5137)">
							<stop  offset="0" style="stop-color:#FF3A44"/>
							<stop  offset="1" style="stop-color:#C31162"/>
						</linearGradient>
						
							<path id="Path_00000172426992308795971540000005674390330660288406_" style="fill:url(#Path_00000057839606828431249230000000320919644901918353_);" d="
							M6.8,6.4L3,2.8L-8,13.5c0.4,0.4,1.1,0.5,1.8,0.1L6.8,6.4"/>
						
							<linearGradient id="Path_00000106113032891812725370000015372418897932567993_" gradientUnits="userSpaceOnUse" x1="-857.5628" y1="496.9792" x2="-856.9539" y2="496.5379" gradientTransform="matrix(14.8181 0 0 -11.0741 12695.5947 5495.4399)">
							<stop  offset="0" style="stop-color:#32A071"/>
							<stop  offset="6.850000e-02" style="stop-color:#2DA771"/>
							<stop  offset="0.4762" style="stop-color:#15CF74"/>
							<stop  offset="0.8009" style="stop-color:#06E775"/>
							<stop  offset="1" style="stop-color:#00F076"/>
						</linearGradient>
						
							<path id="Path_00000058583661232009579690000008243797764281108917_" style="fill:url(#Path_00000106113032891812725370000015372418897932567993_);" d="
							M6.8-0.8L-6.2-8C-6.9-8.4-7.6-8.4-8-7.9L3,2.8L6.8-0.8z"/>
						<g id="Path_00000092418151030366972080000013955332750366806667_" transform="translate(0.000000, 14.630834)">
							<path class="st8" d="M6.7-8.3L-6.2-1.2c-0.7,0.4-1.4,0.4-1.8,0l0,0L-8-1.1l0,0L-8-1l0,0c0.4,0.4,1.1,0.4,1.8,0L6.7-8.3
								L6.7-8.3z"/>
							<path class="st9" d="M-8-1.2c-0.3-0.3-0.4-0.7-0.4-1.2v0.1c0,0.5,0.2,0.9,0.4,1.2V-1.2L-8-1.2z"/>
						</g>
						<path id="Path_00000165917907104629753030000006459292480616589463_" class="st9" d="M11.1,3.9L6.7,6.4l0.1,0.1L11.1,4
							c0.6-0.3,0.9-0.8,0.9-1.2l0,0C12,3.2,11.7,3.6,11.1,3.9z"/>
						<path id="Path_00000054226685815048077830000003706505499335028652_" class="st10" d="M-6.2-7.9l17.3,9.5
							C11.7,2,12,2.4,12.1,2.8l0,0c0-0.4-0.3-0.9-0.9-1.2L-6.2-8c-1.2-0.7-2.3-0.1-2.3,1.3v0.1C-8.4-8-7.4-8.5-6.2-7.9z"/>
					</g>
				</g>
			</g>
		</g>
	</g>
</g>
</svg>
