<?xml version="1.0" encoding="UTF-8"?>
<svg width="178px" height="146px" viewBox="0 0 178 146" version="1.1" xmlns="http://www.w3.org/2000/svg" xmlns:xlink="http://www.w3.org/1999/xlink">
    <title>Group 185</title>
    <defs>
        <polygon id="path-1" points="0 146 178 146 178 0 0 0"></polygon>
    </defs>
    <g id="Authenticated" stroke="none" stroke-width="1" fill="none" fill-rule="evenodd">
        <g id="Mobile-Menu-(ES)" transform="translate(21.000000, -511.000000)">
            <g id="Group-4" transform="translate(-21.000000, 483.000000)">
                <g id="Group-185" transform="translate(0.000000, 28.000000)">
                    <path d="M50.3767703,102.830855 C50.4638905,102.808037 50.5514015,102.786398 50.6369591,102.760039 C50.5514015,102.786398 50.4638905,102.80843 50.3767703,102.830855" id="Fill-1" fill="#F5F0E3"></path>
                    <path d="M16.0753311,102.470479 C15.9249217,102.402417 15.7776377,102.328453 15.633479,102.249768 C15.9342979,102.415006 16.2483997,102.556245 16.575003,102.672305 C16.4054506,102.611718 16.2386328,102.544443 16.0753311,102.470479" id="Fill-3" fill="#F5F0E3"></path>
                    <path d="M49.2612401,103.021784 C49.1694317,103.029259 49.0764514,103.0328 48.9838617,103.038308 C49.2213914,103.029259 49.4550143,103.006047 49.6855119,102.972212 C49.54526,102.992277 49.4038361,103.010375 49.2612401,103.021784" id="Fill-5" fill="#F5F0E3"></path>
                    <path d="M49.7999403,102.954548 C49.9198772,102.934483 50.0378607,102.912451 50.1554535,102.886092 C50.0378607,102.912058 49.9198772,102.934876 49.7999403,102.954548" id="Fill-7" fill="#F5F0E3"></path>
                    <path d="M55.2205402,79.8053678 L55.2205402,75.5115394 L55.2205402,75.5060315 C55.2205402,73.7352306 54.7306352,72.0800963 53.8797475,70.670065 C54.7306352,72.0800963 55.2205402,73.7352306 55.2205402,75.5060315 L55.2205402,75.5115394 L55.2205402,76.7016467 L55.2205402,79.8053678 L55.2205402,96.5250964 C55.2205402,96.534932 55.2189775,96.5447676 55.2189775,96.5549966 C55.2189775,96.5447676 55.2205402,96.534932 55.2205402,96.5250964 L55.2205402,79.8053678 Z" id="Fill-9" fill="#F5F0E3"></path>
                    <path d="M17.1156957,102.838134 C17.2872015,102.88259 17.4618327,102.920359 17.638808,102.950653 C17.4618327,102.920359 17.2872015,102.88259 17.1156957,102.838134" id="Fill-11" fill="#F5F0E3"></path>
                    <path d="M18.2018862,103.021784 C18.0178788,103.006834 17.8362155,102.983622 17.6572868,102.953721 C17.9760767,103.006834 18.3007267,103.042242 18.6335808,103.046963 C18.4878595,103.044602 18.3448728,103.033193 18.2018862,103.021784" id="Fill-13" fill="#F5F0E3"></path>
                    <path d="M51.6373186,96.7545019 C51.5580118,96.7545019 51.479877,96.7584361 51.4021329,96.7663046 C51.479877,96.7584361 51.5580118,96.7545019 51.6373186,96.7545019" id="Fill-15" fill="#F5F0E3"></path>
                    <path d="M49.5645202,66.9130636 C49.2875325,66.7950364 49.0035126,66.6903856 48.7136325,66.5995047 C49.0035126,66.6903856 49.2875325,66.7950364 49.5645202,66.9130636" id="Fill-17" fill="#F5F0E3"></path>
                    <path d="M45.9599678,66.1799968 C46.9186815,66.1799968 47.8437972,66.3271374 48.7138279,66.5993867 C47.8437972,66.3271374 46.9186815,66.1799968 45.9599678,66.1799968" id="Fill-19" fill="#F5F0E3"></path>
                    <path d="M51.1253405,102.589568 C51.1245591,102.589962 51.1233871,102.590355 51.1222151,102.590749 C51.4417863,102.462886 51.7461212,102.306697 52.0379546,102.131623 C51.7469026,102.306303 51.443349,102.462099 51.1253405,102.589568" id="Fill-21" fill="#F5F0E3"></path>
                    <path d="M51.8505874,68.3096397 C52.6510782,68.9749195 53.3386642,69.7727832 53.8797475,70.670183 C53.3386642,69.7727832 52.6510782,68.9749195 51.8505874,68.3096397" id="Fill-23" fill="#F5F0E3"></path>
                    <path d="M50.3741137,67.3057006 C50.1115808,67.1621009 49.8416252,67.0310907 49.5646374,66.9130636 C49.8416252,67.0310907 50.1115808,67.1621009 50.3741137,67.3057006" id="Fill-25" fill="#F5F0E3"></path>
                    <path d="M51.8505874,68.3096397 C51.5075758,68.0244074 51.1434677,67.7639608 50.76217,67.530267 C51.1434677,67.7639608 51.5075758,68.0244074 51.8505874,68.3096397" id="Fill-27" fill="#F5F0E3"></path>
                    <path d="M16.5850043,102.676004 C16.7526034,102.735017 16.9221558,102.787736 17.095615,102.83298 C16.9225465,102.787736 16.7522127,102.735017 16.5850043,102.676004" id="Fill-29" fill="#F5F0E3"></path>
                    <path d="M17.5395768,97.5313567 C17.5509063,97.5439463 17.5626266,97.555749 17.5731748,97.5683385 C17.5626266,97.555749 17.5509063,97.5439463 17.5395768,97.5313567" id="Fill-31" fill="#F5F0E3"></path>
                    <path d="M17.7719105,97.8427517 C17.7828494,97.8604558 17.7937883,97.8781599 17.8043365,97.8962574 C17.7937883,97.8781599 17.7828494,97.8604558 17.7719105,97.8427517" id="Fill-33" fill="#F5F0E3"></path>
                    <path d="M16.9528237,97.0531893 C16.9676693,97.0614512 16.9817336,97.0708934 16.9961885,97.0799421 C16.9817336,97.0708934 16.9676693,97.0614512 16.9528237,97.0531893" id="Fill-35" fill="#F5F0E3"></path>
                    <path d="M16.5853949,96.886653 C16.6053193,96.8937346 16.6252437,96.9008162 16.6443867,96.9086847 C16.624853,96.9008162 16.6053193,96.8937346 16.5853949,96.886653" id="Fill-37" fill="#F5F0E3"></path>
                    <path d="M16.1989404,96.7875101 C16.21613,96.7902641 16.2337103,96.7922312 16.2509,96.795772 C16.2337103,96.7922312 16.21613,96.7902641 16.1989404,96.7875101" id="Fill-39" fill="#F5F0E3"></path>
                    <path d="M17.9554491,98.203128 C17.9620906,98.2188649 17.9667787,98.2353887 17.9730295,98.2511257 C17.9667787,98.2349953 17.9620906,98.2188649 17.9554491,98.203128" id="Fill-41" fill="#F5F0E3"></path>
                    <path d="M16.2508218,101.339936 C16.2336322,101.343083 16.2164425,101.345051 16.1988622,101.348198 C16.2164425,101.345051 16.2336322,101.343083 16.2508218,101.339936" id="Fill-43" fill="#F5F0E3"></path>
                    <path d="M15.2149891,102.000573 C15.3427395,102.083979 15.4743966,102.16109 15.6083977,102.235447 C15.4743966,102.161484 15.3431302,102.083192 15.2149891,102.000573" id="Fill-45" fill="#F5F0E3"></path>
                    <path d="M16.644543,101.227181 C16.6250093,101.234656 16.6050849,101.242131 16.5855512,101.249212 C16.6050849,101.242131 16.6246186,101.234656 16.644543,101.227181" id="Fill-47" fill="#F5F0E3"></path>
                    <path d="M14.8063833,101.713571 C14.8997544,101.785567 14.9978135,101.851269 15.0947007,101.917758 C14.9974229,101.851662 14.9001451,101.785174 14.8063833,101.713571" id="Fill-49" fill="#F5F0E3"></path>
                    <path d="M16.9963057,101.056002 C16.9818508,101.064657 16.9677865,101.073706 16.9529409,101.082361 C16.9677865,101.073706 16.9818508,101.064657 16.9963057,101.056002" id="Fill-51" fill="#F5F0E3"></path>
                    <path d="M17.9729904,99.8845824 C17.9667396,99.9007127 17.9616608,99.9168431 17.9554101,99.9329735 C17.9620515,99.9168431 17.9667396,99.9007127 17.9729904,99.8845824" id="Fill-53" fill="#F5F0E3"></path>
                    <path d="M17.8043365,100.239411 C17.7937883,100.257509 17.7828494,100.275213 17.7719105,100.292917 C17.7828494,100.275213 17.7937883,100.257509 17.8043365,100.239411" id="Fill-55" fill="#F5F0E3"></path>
                    <path d="M17.5731357,100.567133 C17.5625875,100.580116 17.5508673,100.591919 17.5395377,100.604509 C17.5508673,100.591919 17.5625875,100.580116 17.5731357,100.567133" id="Fill-57" fill="#F5F0E3"></path>
                    <path d="M12.2425861,76.701568 L12.2425861,79.8052891 L12.2425861,96.5250177 C12.2425861,96.6021288 12.2515716,96.6776662 12.2539156,96.7543838 C12.2515716,96.6776662 12.2425861,96.6021288 12.2425861,96.5250177 L12.2425861,79.8052891 L12.2425861,76.701568 L12.2425861,76.0071749 C10.3196893,75.5803099 8.42296767,75.2675379 6.85324007,76.5945567 C5.41477889,77.81063 4.87017951,79.7006384 4.75922813,81.907353 C4.92448318,81.6394313 5.09130092,81.3809518 5.26241608,81.1429304 C7.68732878,77.7630257 10.0430922,76.655144 12.2425861,76.701568" id="Fill-59" fill="#F5F0E3"></path>
                    <path d="M14.4118809,101.387186 C14.4091462,101.385219 14.4064114,101.383252 14.4040674,101.380891 C14.4064114,101.383252 14.4091462,101.385219 14.4118809,101.387186" id="Fill-61" fill="#F5F0E3"></path>
                    <mask id="mask-2" fill="white">
                        <use xlink:href="#path-1"></use>
                    </mask>
                    <g id="Clip-64"></g>
                    <polygon id="Fill-63" fill="#F5F0E3" mask="url(#mask-2)" points="20.8983172 108.409921 46.5655904 108.409921 46.5655904 103.051881 20.8983172 103.051881"></polygon>
                    <path d="M18.6478795,108.409685 L18.6478795,103.048104 C18.6428007,103.048104 18.6385033,103.047317 18.6338152,103.046924 C18.3005704,103.042203 17.9759204,103.007188 17.6575212,102.953682 C17.6508798,102.952502 17.6450197,102.951715 17.6387689,102.950928 C17.4617936,102.920635 17.2875531,102.882472 17.1156566,102.838016 C17.1094058,102.836442 17.1023737,102.834868 17.0953415,102.833294 C16.922273,102.787657 16.7523299,102.735332 16.5851215,102.675925 C16.5819961,102.674745 16.57848,102.673564 16.574964,102.672384 C16.2483606,102.556324 15.9342588,102.415085 15.6334399,102.249847 C15.6252358,102.245126 15.616641,102.240011 15.6084368,102.235684 C15.4744357,102.160933 15.3427786,102.083822 15.2150282,102.000416 C15.1740075,101.974057 15.1353307,101.944943 15.0947007,101.917797 C14.9978135,101.851308 14.8997544,101.785607 14.8063833,101.71361 C14.6704288,101.61014 14.5383811,101.501555 14.4118027,101.387068 C14.409068,101.385101 14.406724,101.383527 14.4043799,101.381167 L13.1065613,101.381167 L13.1065613,108.573349 C13.5284891,108.470272 13.9668252,108.409685 14.4196162,108.409685 L18.6478795,108.409685 Z" id="Fill-65" fill="#F5F0E3" mask="url(#mask-2)"></path>
                    <path d="M54.3968434,108.583499 L54.3968434,101.381088 L53.0587854,101.381088 C52.7450743,101.664353 52.4020627,101.913391 52.0379546,102.131741 C51.7461212,102.306815 51.4417863,102.463004 51.1222151,102.590867 C50.9636015,102.654208 50.8018625,102.709681 50.6369981,102.760039 C50.5514406,102.786398 50.4639296,102.808037 50.3768093,102.830855 C50.302972,102.84974 50.2303066,102.869411 50.1556879,102.885935 C50.0380951,102.912294 49.9197209,102.934719 49.799784,102.95439 C49.7618887,102.960685 49.7236026,102.966586 49.6853166,102.972094 C49.4552097,103.006322 49.2215867,103.029141 48.984057,103.03819 C48.9278,103.041337 48.8723243,103.047238 48.8156766,103.048025 L48.8156766,108.409606 L53.0435492,108.409606 C53.5111858,108.409606 53.9631954,108.474128 54.3968434,108.583499" id="Fill-66" fill="#F5F0E3" mask="url(#mask-2)"></path>
                    <path d="M173.444782,89.3178461 C163.716612,74.4657007 147.768914,78.8091005 146.687138,72.6878181 C143.495723,54.6394971 142.477627,52.9540691 133.152242,42.8167157 C125.270787,34.2491236 100.327433,21.6280851 82.8936112,58.7783164 C82.0364727,60.6049835 81.1973052,62.5512515 80.3792341,64.6249889 C77.9121287,70.8804288 74.0507082,72.2755099 70.4498671,71.1078278 C67.1498449,70.0381082 64.0686001,66.8159665 62.4816829,63.2051221 C57.0603016,50.8736436 47.4067503,46.6970555 38.1708294,48.3238633 C31.3164564,49.5308878 25.6110552,57.6330595 22.5216062,66.1798001 L33.2834993,66.1798001 C33.4370341,66.3340223 33.5854902,66.4913918 33.7316022,66.6511219 C33.8777143,66.4913918 34.026561,66.3340223 34.1797052,66.1798001 L45.960085,66.1798001 C46.9187987,66.1798001 47.8439144,66.3269406 48.7139451,66.59919 C49.0038251,66.6900709 49.2874543,66.7947217 49.5644421,66.9131422 C49.8414299,67.0311694 50.1117762,67.1621796 50.374309,67.3057793 C50.5051848,67.3773824 50.6348885,67.452133 50.7622482,67.5304243 C51.1435459,67.7637247 51.5076539,68.0245647 51.8506656,68.3097971 C52.6511563,68.9746834 53.3383517,69.7729405 53.8798256,70.6703404 C54.7307133,72.0803717 55.2206184,73.735506 55.2206184,75.5059135 L55.2206184,75.5118148 L55.2206184,79.8052498 L55.2206184,96.5249784 C55.2206184,96.5352074 55.2190557,96.5446496 55.2190557,96.5548786 C55.2171023,96.6217607 55.2112422,96.6874624 55.2088981,96.7543445 L58.8038791,96.7543445 C60.0723971,96.7543445 61.1010414,97.7902296 61.1010414,99.0680704 C61.1010414,100.345518 60.0723971,101.381009 58.8038791,101.381009 L56.084789,101.381009 L56.084789,109.323844 C57.6025569,110.324321 58.6077608,112.049485 58.6077608,114.013064 L58.6077608,117.741149 L54.9717591,117.741149 L58.1123863,145.351637 C57.389249,145.342982 56.6665023,145.333933 55.9460997,145.324098 L52.8085979,117.741149 L14.6546065,117.741149 L12.3488494,138.010741 C13.6892514,140.160016 14.8979964,141.994158 15.8219401,143.360913 C16.9416114,145.018014 17.6432616,145.989378 17.6432616,145.989378 L162.384805,145.989378 C162.384805,145.989378 188.200924,111.846478 173.444782,89.3178461" id="Fill-67" fill="#F5F0E3" mask="url(#mask-2)"></path>
                    <path d="M8.85548271,117.741188 L8.85548271,114.013103 C8.85548271,112.032214 9.87865757,110.295641 11.4190846,109.299098 L11.4190846,101.381049 L8.65936443,101.381049 C7.39084638,101.381049 6.36220208,100.345557 6.36220208,99.0681098 C6.36220208,97.790269 7.39084638,96.7543838 8.65936443,96.7543838 L12.2539547,96.7543838 C12.2516107,96.6776662 12.2426252,96.6025222 12.2426252,96.5250177 L12.2426252,79.8052891 L12.2426252,76.701568 C10.0431313,76.655144 7.68736785,77.7630257 5.26245514,81.1429304 C5.09133999,81.3809518 4.92413157,81.6394313 4.7592672,81.907353 C4.43071048,88.4354356 7.90887993,97.7446318 3.37745373,100.651641 C-4.80677314,105.90267 3.58998031,123.362035 10.5260042,135.018792 L12.4914844,117.741188 L8.85548271,117.741188 Z" id="Fill-68" fill="#F5F0E3" mask="url(#mask-2)"></path>
                    <path d="M18.6478795,103.047907 L18.6478795,108.409488 L20.898161,108.409488 L20.898161,103.051841 L18.7236702,103.051841 C18.6982764,103.051841 18.6732733,103.047907 18.6478795,103.047907" id="Fill-69" fill="#D4D3D3" mask="url(#mask-2)"></path>
                    <path d="M48.8155984,108.409685 L48.8155984,103.048104 C48.7898139,103.048104 48.7648108,103.051645 48.739417,103.051645 L46.5653169,103.051645 L46.5653169,108.409685 L48.8155984,108.409685 Z" id="Fill-70" fill="#D4D3D3" mask="url(#mask-2)"></path>
                    <path d="M16.5751202,102.672345 C16.5786363,102.673525 16.5821523,102.674705 16.5848871,102.675886 C16.5821523,102.674705 16.5786363,102.673525 16.5751202,102.672345" id="Fill-71" fill="#D8B781" mask="url(#mask-2)"></path>
                    <path d="M15.6083196,102.235526 C15.6165237,102.240247 15.6251186,102.244968 15.6333227,102.249689 C15.6251186,102.244968 15.6165237,102.240247 15.6083196,102.235526" id="Fill-72" fill="#D8B781" mask="url(#mask-2)"></path>
                    <path d="M17.0954978,102.833137 C17.1025299,102.834711 17.1091714,102.836284 17.1158129,102.838252 C17.1091714,102.836284 17.1025299,102.834711 17.0954978,102.833137" id="Fill-73" fill="#D8B781" mask="url(#mask-2)"></path>
                    <path d="M14.4118809,101.387186 C14.5384592,101.501673 14.670507,101.609864 14.8064615,101.713728 C14.6708977,101.609471 14.5384592,101.501673 14.4118809,101.387186" id="Fill-74" fill="#D8B781" mask="url(#mask-2)"></path>
                    <path d="M15.0948179,101.917797 C15.1354479,101.944943 15.1741247,101.974057 15.2151454,102.000416 C15.1741247,101.974057 15.1354479,101.945337 15.0948179,101.917797" id="Fill-75" fill="#D8B781" mask="url(#mask-2)"></path>
                    <path d="M18.6478795,103.047907 L18.6478795,103.047907 C18.6428007,103.047907 18.6385033,103.04712 18.6338152,103.04712 C18.6385033,103.04712 18.6428007,103.047907 18.6478795,103.047907" id="Fill-76" fill="#D8B781" mask="url(#mask-2)"></path>
                    <path d="M17.6387689,102.950731 C17.6450197,102.951912 17.6508798,102.952699 17.6575212,102.953485 C17.6508798,102.952699 17.6450197,102.951912 17.6387689,102.950731" id="Fill-77" fill="#D8B781" mask="url(#mask-2)"></path>
                    <path d="M50.6369981,102.75996 C50.8018625,102.709602 50.9636015,102.654129 51.1222151,102.590788 C50.9639922,102.654129 50.8014718,102.709209 50.6369981,102.75996" id="Fill-78" fill="#D8B781" mask="url(#mask-2)"></path>
                    <path d="M53.0588636,101.381049 C52.7451525,101.664314 52.4017501,101.913745 52.0380328,102.131702 C52.4017501,101.913745 52.7451525,101.664314 53.0588636,101.381049" id="Fill-79" fill="#D8B781" mask="url(#mask-2)"></path>
                    <path d="M48.9838617,103.038111 C48.9272139,103.040078 48.8725196,103.04716 48.8154812,103.047947 C48.8725196,103.04716 48.9276046,103.041258 48.9838617,103.038111" id="Fill-80" fill="#D8B781" mask="url(#mask-2)"></path>
                    <path d="M49.6854729,102.972055 C49.7237589,102.966547 49.7616543,102.960646 49.7999403,102.954744 C49.7616543,102.961039 49.7237589,102.966154 49.6854729,102.972055" id="Fill-81" fill="#D8B781" mask="url(#mask-2)"></path>
                    <path d="M50.1554926,102.885974 C50.2301113,102.86945 50.3031673,102.849779 50.376614,102.830895 C50.303558,102.850172 50.2297206,102.86945 50.1554926,102.885974" id="Fill-82" fill="#D8B781" mask="url(#mask-2)"></path>
                    <path d="M55.2090935,96.7545019 C55.2114375,96.6876198 55.2172976,96.621918 55.2188603,96.555036 C55.2172976,96.621918 55.2114375,96.6876198 55.2090935,96.7545019" id="Fill-83" fill="#D8B781" mask="url(#mask-2)"></path>
                    <path d="M18.7238265,103.051763 L18.7238265,103.051763 C18.6984327,103.051763 18.6734296,103.048222 18.6480358,103.047828 C18.6734296,103.048222 18.6984327,103.051763 18.7238265,103.051763" id="Fill-84" fill="#D8B781" mask="url(#mask-2)"></path>
                    <path d="M48.8155984,103.047907 L48.8155984,103.047907 C48.7898139,103.047907 48.7652015,103.051841 48.739417,103.051841 C48.7648108,103.051841 48.7898139,103.047907 48.8155984,103.047907" id="Fill-85" fill="#D8B781" mask="url(#mask-2)"></path>
                    <path d="M52.8085588,117.741188 L55.9714545,145.989417 C56.6914664,145.999646 57.4560152,145.980762 58.1795432,145.989417 L54.97172,117.741188 L52.8085588,117.741188 Z" id="Fill-86" fill="#D4D3D3" mask="url(#mask-2)"></path>
                    <path d="M10.5261604,135.018595 C11.1500666,136.06707 11.7618619,137.06912 12.3490447,138.010584 L14.6544112,117.740991 L12.49125,117.740991 L10.5261604,135.018595 Z" id="Fill-87" fill="#D4D3D3" mask="url(#mask-2)"></path>
                    <path d="M13.1067176,101.381049 L11.4190065,101.381049 L11.4190065,109.299098 C11.9303986,108.968229 12.4988291,108.721552 13.1067176,108.573231 L13.1067176,101.381049 Z" id="Fill-88" fill="#D4D3D3" mask="url(#mask-2)"></path>
                    <path d="M14.4042627,101.381049 L14.4042627,101.381049 L15.8259249,101.381049 C15.9532846,101.381049 16.0775189,101.368066 16.1990185,101.348001 C16.2165988,101.345247 16.2337885,101.34328 16.2509781,101.340133 C16.3658362,101.318494 16.4771783,101.287414 16.5853949,101.249252 C16.6053193,101.241777 16.6252437,101.234695 16.6443867,101.22722 C16.7514313,101.185911 16.8545692,101.138306 16.9526284,101.08244 C16.9678647,101.073785 16.9819289,101.064736 16.9963839,101.056081 C17.1999249,100.934119 17.383151,100.781864 17.5394205,100.60443 C17.5511407,100.59184 17.5624703,100.580038 17.5730185,100.567055 C17.6464652,100.481288 17.7120984,100.389227 17.7718715,100.292838 C17.7828103,100.275134 17.7937492,100.25743 17.8042974,100.239333 C17.8617265,100.14137 17.9125141,100.03908 17.9554882,99.9328555 C17.9613483,99.9167251 17.9668177,99.9005947 17.9730685,99.8844643 C18.0152613,99.7715517 18.051594,99.6550982 18.0762064,99.5343171 C18.1070697,99.3836357 18.1230873,99.2274464 18.1230873,99.0681098 C18.1230873,98.9079862 18.1070697,98.7521904 18.0762064,98.6019024 C18.051594,98.4807279 18.0152613,98.3642744 17.9730685,98.2509683 C17.9668177,98.2352314 17.961739,98.2187076 17.9554882,98.2029706 C17.9125141,98.0963527 17.8617265,97.994456 17.8042974,97.8964934 C17.7937492,97.8783959 17.7828103,97.8602984 17.7718715,97.8425943 C17.7120984,97.7465989 17.6464652,97.6545377 17.5730185,97.5683779 C17.5624703,97.5557883 17.5511407,97.5439856 17.5394205,97.531396 C17.383151,97.3539619 17.1999249,97.2017068 16.9963839,97.0797454 C16.9819289,97.0710901 16.9678647,97.0616479 16.9526284,97.053386 C16.8541786,96.9971264 16.7514313,96.9495221 16.6443867,96.908606 C16.6252437,96.9007375 16.6053193,96.8936559 16.5853949,96.8865743 C16.4771783,96.8484122 16.3658362,96.8173317 16.2509781,96.7956934 C16.2337885,96.7921525 16.2162081,96.7905788 16.1990185,96.7874315 C16.0771282,96.7673668 15.9532846,96.7543838 15.8259249,96.7543838 L12.2543844,96.7543838 L12.2539938,96.7543838 L8.6594035,96.7543838 C7.39088545,96.7543838 6.36224115,97.790269 6.36224115,99.0681098 C6.36224115,100.345557 7.39088545,101.381049 8.6594035,101.381049 L11.418733,101.381049 L13.1068348,101.381049 L14.4042627,101.381049 Z" id="Fill-89" fill="#B39362" mask="url(#mask-2)"></path>
                    <path d="M17.8043365,97.896336 C17.8613749,97.9942986 17.9125531,98.0965888 17.9555273,98.2032067 C17.9125531,98.0961954 17.8613749,97.9942986 17.8043365,97.896336" id="Fill-90" fill="#B39362" mask="url(#mask-2)"></path>
                    <path d="M15.8258077,96.7545019 L15.8258077,96.7545019 C15.9531674,96.7545019 16.0774017,96.7674849 16.1989013,96.7875495 C16.0774017,96.7674849 15.9531674,96.7545019 15.8258077,96.7545019" id="Fill-91" fill="#B39362" mask="url(#mask-2)"></path>
                    <path d="M16.9963057,97.0799028 C17.1998468,97.2018642 17.3830728,97.3541192 17.5397331,97.53116 C17.3830728,97.3541192 17.1998468,97.2018642 16.9963057,97.0799028" id="Fill-92" fill="#B39362" mask="url(#mask-2)"></path>
                    <path d="M16.2508218,96.7955753 C16.36568,96.8172136 16.477022,96.8482941 16.5852387,96.8864562 C16.477022,96.8482941 16.3660706,96.8172136 16.2508218,96.7955753" id="Fill-93" fill="#B39362" mask="url(#mask-2)"></path>
                    <path d="M16.644543,96.9085667 C16.7511969,96.9494828 16.8543348,96.9974805 16.9527846,97.0533467 C16.8543348,96.9974805 16.7511969,96.9494828 16.644543,96.9085667" id="Fill-94" fill="#B39362" mask="url(#mask-2)"></path>
                    <path d="M17.5731357,97.5684172 C17.6461917,97.6545771 17.7118249,97.7466382 17.7719887,97.8426337 C17.7118249,97.7466382 17.6461917,97.6545771 17.5731357,97.5684172" id="Fill-95" fill="#B39362" mask="url(#mask-2)"></path>
                    <path d="M16.5853949,101.249094 C16.4771783,101.287257 16.3658362,101.318337 16.2509781,101.339975 C16.3658362,101.318337 16.4771783,101.287257 16.5853949,101.249094" id="Fill-96" fill="#B39362" mask="url(#mask-2)"></path>
                    <path d="M18.122931,99.0679524 C18.122931,99.2276825 18.1069134,99.3834784 18.0764408,99.5341597 C18.0514377,99.6549408 18.0154957,99.7713943 17.9729123,99.8847004 C18.0682367,99.6301551 18.122931,99.3559387 18.122931,99.0679524 C18.122931,98.7799661 18.0682367,98.5053562 17.9729123,98.250811 C18.0154957,98.364117 18.0514377,98.4805705 18.0764408,98.6017451 C18.1069134,98.7524264 18.122931,98.9082223 18.122931,99.0679524" id="Fill-97" fill="#B39362" mask="url(#mask-2)"></path>
                    <path d="M14.4042627,101.381049 L14.4042627,101.381049 L15.8259249,101.381049 C15.9532846,101.381049 16.0775189,101.368066 16.1990185,101.348001 C16.0775189,101.368066 15.9532846,101.381049 15.8259249,101.381049 L14.4042627,101.381049 Z" id="Fill-98" fill="#B39362" mask="url(#mask-2)"></path>
                    <path d="M16.9528237,101.082322 C16.8547646,101.138188 16.751236,101.186186 16.644582,101.227102 C16.751236,101.186186 16.8543739,101.138188 16.9528237,101.082322" id="Fill-99" fill="#B39362" mask="url(#mask-2)"></path>
                    <path d="M17.5395768,100.604587 C17.3833073,100.781628 17.2000812,100.933883 16.9961494,101.055845 C17.2000812,100.933883 17.3833073,100.781628 17.5395768,100.604587" id="Fill-100" fill="#B39362" mask="url(#mask-2)"></path>
                    <path d="M17.7719105,100.292996 C17.7121374,100.388991 17.6465042,100.481446 17.5730575,100.567212 C17.6465042,100.481052 17.7121374,100.389385 17.7719105,100.292996" id="Fill-101" fill="#B39362" mask="url(#mask-2)"></path>
                    <path d="M17.9554491,99.9328161 C17.9128657,100.039434 17.8616874,100.141331 17.8042583,100.239293 C17.8616874,100.141331 17.9128657,100.039434 17.9554491,99.9328161" id="Fill-102" fill="#B39362" mask="url(#mask-2)"></path>
                    <path d="M54.3968434,108.583499 C55.0051227,108.736935 55.5743345,108.987546 56.0845546,109.323923 L56.0845546,101.381088 L54.3968434,101.381088 L54.3968434,108.583499 Z" id="Fill-103" fill="#D4D3D3" mask="url(#mask-2)"></path>
                    <path d="M53.0588636,101.381049 L53.0588636,101.381049 L54.3969216,101.381049 L56.0846327,101.381049 L58.8037228,101.381049 C60.0722409,101.381049 61.1008852,100.345557 61.1008852,99.0681098 C61.1008852,97.790269 60.0722409,96.7543838 58.8037228,96.7543838 L55.2091326,96.7543838 L51.6372014,96.7543838 C51.5578946,96.7543838 51.4797598,96.7583181 51.4024064,96.76658 C51.1711274,96.7901854 50.9496154,96.8484122 50.7429489,96.9361457 C49.9190177,97.2874732 49.340039,98.1097292 49.340039,99.0681098 C49.340039,100.026097 49.9190177,100.848353 50.7429489,101.199287 C51.0179833,101.316527 51.3203649,101.381049 51.6372014,101.381049 L53.0588636,101.381049 Z" id="Fill-104" fill="#B39362" mask="url(#mask-2)"></path>
                    <path d="M49.3401953,99.0679524 C49.3401953,98.1095718 49.9187833,97.2873159 50.7431052,96.9363817 C49.9187833,97.2873159 49.3401953,98.1095718 49.3401953,99.0679524 C49.3401953,100.02594 49.9187833,100.848196 50.7431052,101.19913 C49.9187833,100.848196 49.3401953,100.026333 49.3401953,99.0679524" id="Fill-105" fill="#B39362" mask="url(#mask-2)"></path>
                    <path d="M53.0588636,101.381049 L53.0588636,101.381049 L51.6372014,101.381049 C51.3203649,101.381049 51.0179833,101.316527 50.7429489,101.199287 C51.0179833,101.316527 51.3203649,101.381049 51.6372014,101.381049 L53.0588636,101.381049 Z" id="Fill-106" fill="#B39362" mask="url(#mask-2)"></path>
                    <path d="M58.6076436,117.741188 L58.6076436,114.013103 C58.6076436,112.049525 57.6028304,110.324361 56.0846718,109.323884 C55.574061,108.987506 55.0048492,108.736895 54.3969606,108.58346 C53.962922,108.474088 53.511303,108.409567 53.0436664,108.409567 L48.8157938,108.409567 L46.5655123,108.409567 L20.8982391,108.409567 L18.6479576,108.409567 L14.4196944,108.409567 C13.9665127,108.409567 13.5281766,108.470154 13.1066395,108.573231 C12.4991416,108.721552 11.9303205,108.968229 11.4189284,109.299098 C9.87889198,110.295641 8.85532644,112.032214 8.85532644,114.013103 L8.85532644,117.741188 L12.4913281,117.741188 L14.6544893,117.741188 L52.8084807,117.741188 L54.9716419,117.741188 L58.6076436,117.741188 Z" id="Fill-107" fill="#D8B781" mask="url(#mask-2)"></path>
                    <polygon id="Fill-108" fill="#D4D3D3" mask="url(#mask-2)" points="132.041907 144.469974 134.350009 144.469974 134.350009 85.5578939 132.041907 85.5578939"></polygon>
                    <polygon id="Fill-109" fill="#D4D3D3" mask="url(#mask-2)" points="121.405811 145.922495 144.985714 145.922495 144.985714 143.807449 121.405811 143.807449"></polygon>
                    <polygon id="Fill-110" fill="#D8B781" mask="url(#mask-2)" points="103.658279 87.1666042 162.733247 87.1666042 162.733247 83.9483968 103.658279 83.9483968"></polygon>
                    <path d="M152.344213,84.3153433 L145.662517,84.3153433 C145.038611,84.3153433 144.532689,83.8058593 144.532689,83.1771679 L144.532689,82.9060989 L153.474432,82.9060989 L153.474432,83.1771679 C153.474432,83.8058593 152.968509,84.3153433 152.344213,84.3153433" id="Fill-111" fill="#DA8A00" mask="url(#mask-2)"></path>
                    <path d="M149.037197,83.4112945 L149.037197,83.4112945 C147.307684,83.4112945 145.905946,81.9996896 145.905946,80.2583954 L145.905946,78.9986521 C145.905946,78.8503313 146.025102,78.730337 146.172386,78.730337 L151.902009,78.730337 C152.048902,78.730337 152.168448,78.8503313 152.168448,78.9986521 L152.168448,80.2583954 C152.168448,81.9996896 150.76632,83.4112945 149.037197,83.4112945" id="Fill-112" fill="#DA8A00" mask="url(#mask-2)"></path>
                    <path d="M152.108402,80.0579853 C151.716165,80.0579853 151.397375,80.3794126 151.397375,80.7744102 C151.397375,81.1694078 151.716165,81.4908351 152.108402,81.4908351 L152.556114,81.4908351 C152.948351,81.4908351 153.267922,81.1694078 153.267922,80.7744102 C153.267922,80.3794126 152.948351,80.0579853 152.556114,80.0579853 L152.108402,80.0579853 Z M152.556114,82.1297555 L152.108402,82.1297555 C151.366512,82.1297555 150.762921,81.5219156 150.762921,80.7744102 C150.762921,80.0269048 151.366512,79.4190649 152.108402,79.4190649 L152.556114,79.4190649 C153.298395,79.4190649 153.902376,80.0269048 153.902376,80.7744102 C153.902376,81.5219156 153.298395,82.1297555 152.556114,82.1297555 L152.556114,82.1297555 Z" id="Fill-113" fill="#DA8A00" mask="url(#mask-2)"></path>
                    <line x1="147.096056" y1="82.9060595" x2="150.863715" y2="82.9060595" id="Stroke-114" stroke="#FFFFFF" stroke-width="0.5" stroke-linecap="round" stroke-linejoin="round" mask="url(#mask-2)"></line>
                    <path d="M68.8139984,144.451366 C68.865958,145.018683 69.1472432,145.250803 69.6449617,145.464039 C70.5423396,145.982965 72.244115,145.393222 73.7548508,145.244115 C75.7465062,145.526986 79.6169122,146.297704 79.7403652,143.820314 C79.7766978,143.09366 78.9230754,143.027564 77.6158807,142.866261 C71.6663083,142.132919 74.5361986,133.293471 74.9940683,131.273632 L69.4863481,130.777525 C69.4863481,130.777525 69.8508469,137.934299 69.6766063,139.965546 C69.389461,141.61596 68.5303692,142.516113 68.7319569,144.201935 L68.8139984,144.451366 Z" id="Fill-115" fill="#CA9D5E" mask="url(#mask-2)"></path>
                    <path d="M68.6579633,144.462499 C69.1576352,146.589742 71.4348731,145.841844 73.3905865,145.772601 C75.0384489,145.662836 75.2415993,146.000393 77.575485,146 C82.9792859,145.999213 82.7206598,143.286949 78.5623272,142.990307 C76.9871301,144.715864 71.0094293,143.324324 68.8357199,142.585867 C68.7173457,143.200789 68.6020969,143.826726 68.6579633,144.462499" id="Fill-116" fill="#403C3C" mask="url(#mask-2)"></path>
                    <path d="M86.0704148,144.451366 C86.1223744,145.018683 86.4036596,145.250803 86.9009874,145.464039 C87.7983653,145.982965 89.5001407,145.393222 91.0108765,145.244115 C93.0025319,145.526986 96.8729379,146.297704 96.9967815,143.820314 C97.0327235,143.09366 96.1794918,143.027564 94.8719064,142.866261 C88.922334,142.132919 91.7926149,133.293471 92.250094,131.273632 L86.7423738,130.777525 C86.7423738,130.777525 87.1072632,137.934299 86.9330227,139.965546 C86.6454867,141.61596 85.7863949,142.516113 85.9883733,144.201935 L86.0704148,144.451366 Z" id="Fill-117" fill="#CA9D5E" mask="url(#mask-2)"></path>
                    <path d="M85.9143797,144.462499 C86.4136609,146.589742 88.6908988,145.841844 90.6466122,145.772601 C92.2948653,145.662836 92.4980157,146.000393 94.8315107,146 C100.235312,145.999213 99.9770762,143.286949 95.8187436,142.990307 C94.2431559,144.715864 88.2658457,143.324324 86.0921363,142.585867 C85.9733714,143.200789 85.8581226,143.826726 85.9143797,144.462499" id="Fill-118" fill="#403C3C" mask="url(#mask-2)"></path>
                    <path d="M77.4389445,21.8579627 C78.3746084,21.8166531 79.6056218,21.1069164 80.5362069,18.635821 C81.8242587,15.2165739 78.3476519,11.2107318 80.177959,6.37201139 C81.4269433,2.04631569 86.2361386,-0.0809272947 90.2483593,1.85275114 C92.8107892,2.83158978 95.0712282,4.72474555 95.167334,7.84341675 C95.204448,9.04178593 94.7676746,10.8625517 95.6748193,11.6383836 C95.7892868,12.016464 95.8654682,12.3575625 95.4384616,12.4984083 C94.7344673,12.8123605 95.4525259,14.4320867 94.5801511,15.7980544 C93.8644366,16.9189191 92.5349734,16.4625474 91.5028131,17.15458 C90.1487374,18.0626024 89.7674397,21.7906872 91.2152771,23.3911356 C91.4137394,23.6114529 87.9867483,25.1886893 87.9867483,25.1886893 L81.7629229,22.3517096 C81.7629229,22.3517096 77.1139038,21.8725193 77.4389445,21.8579627" id="Fill-119" fill="#CA9D5E" mask="url(#mask-2)"></path>
                    <path d="M77.5461845,21.0238647 C78.4041043,20.7701063 79.3870397,19.9722426 79.7679467,19.197591 C80.5379649,17.630977 80.2746508,15.89165 80.0132899,14.1641257" id="Stroke-120" stroke="#A57129" stroke-width="0.717752" stroke-linecap="round" stroke-linejoin="round" mask="url(#mask-2)"></path>
                    <path d="M94.9895383,10.6109965 C95.0571249,11.0953013 95.1356503,11.6516027 95.5439045,12.0202409" id="Stroke-121" stroke="#A57129" stroke-width="0.717752" stroke-linecap="round" stroke-linejoin="round" mask="url(#mask-2)"></path>
                    <path d="M94.7808403,13.4846433 C94.7808403,13.4846433 94.274527,13.5448371 93.8483018,13.1333157" id="Stroke-122" stroke="#D62311" stroke-width="0.717752" stroke-linecap="round" stroke-linejoin="round" mask="url(#mask-2)"></path>
                    <line x1="95.4393211" y1="9.11626107" x2="87.1328133" y2="8.0843102" id="Stroke-123" stroke="#239873" stroke-width="0.663656" stroke-linecap="round" stroke-linejoin="round" mask="url(#mask-2)"></line>
                    <line x1="95.5060873" y1="7.7849933" x2="95.3705234" y2="10.8678629" id="Stroke-124" stroke="#239873" stroke-width="0.663656" stroke-linecap="round" stroke-linejoin="round" mask="url(#mask-2)"></line>
                    <path d="M86.6552926,9.58400274 C86.602161,10.4357655 87.0162753,11.1545509 87.5788457,11.1903525 C88.1421974,11.2257606 88.6418693,10.5644151 88.6950009,9.7134392 C88.7481326,8.86206989 88.3351903,8.14289102 87.7710572,8.10669602 C87.2080962,8.07128787 86.708815,8.73263343 86.6552926,9.58400274" id="Fill-125" fill="#CA9D5E" mask="url(#mask-2)"></path>
                    <path d="M80.3972442,75.5142147 C82.3818675,84.9119313 84.2688222,90.3561311 84.5723758,104.290025 C84.8024828,114.887291 86.2553989,135.248158 86.2553989,135.248158 C86.6952976,135.825311 91.488866,135.789509 92.4671134,134.925157 C92.4671134,134.925157 93.7004708,121.928005 93.7274273,105.912899 C94.2974205,88.3146545 98.7354756,64.9401608 94.9463298,49.932613 C82.7463662,48.9565283 76.987052,56.8891342 80.2065954,74.3622696 L80.3972442,75.5142147 Z" id="Fill-126" fill="#EA9428" mask="url(#mask-2)"></path>
                    <path d="M69.1108324,135.24623 C70.1887016,135.92764 74.1040351,135.823776 75.2557417,135.370159 C76.1703092,123.7614 77.5837673,106.45783 82.2820112,93.3548473 C87.4467198,80.676369 93.9811309,63.7048491 92.6934698,51.965867 L75.4815512,49.9322589 C75.4815512,49.9322589 71.4509689,60.267898 70.4735029,71.5532623 C70.1812788,74.9327736 70.4742842,90.467116 70.0472777,93.2360333 C69.3534409,107.392605 68.1009405,134.607703 69.1108324,135.24623" id="Fill-127" fill="#EA9428" mask="url(#mask-2)"></path>
                    <path d="M74.8427213,43.7260363 C74.646603,48.7996308 73.7711029,50.1475011 79.202251,51.9962 C83.993866,53.6281223 93.7911853,55.0684471 95.1565904,51.719623 C98.7296936,42.9557123 101.04639,25.6214556 90.3071557,20.6973622 C90.3528645,28.0602903 79.7320047,23.838852 78.4033229,20.9896761 C64.937576,21.4023778 75.3337983,36.2470481 74.8427213,43.7260363" id="Fill-128" fill="#EF756C" mask="url(#mask-2)"></path>
                    <path d="M55.9797368,62.7511896 C55.4027115,62.8857405 54.2392847,63.426305 53.8806461,64.0459476 C52.7207353,66.0500489 52.7711323,69.5149331 53.8169662,68.8413914 C54.291635,68.5360945 54.4885346,66.2597438 55.4042741,65.8254039 C55.2565994,66.297906 54.6451948,67.3605439 55.1143941,67.7047898 C55.43084,67.4746368 55.7089998,67.0225928 56.1996861,66.6720521 C56.8720359,66.1920749 58.2151726,66.05477 58.7586,64.2670518 C59.3926637,62.1807249 58.9265897,62.4222872 58.2815872,61.8974597 C57.6108002,61.3517808 57.2584123,62.4525808 55.9797368,62.7511896" id="Fill-129" fill="#CA9D5E" mask="url(#mask-2)"></path>
                    <path d="M54.0767253,67.6943247 C54.3369141,66.6187038 54.7936118,65.7763832 55.5327668,65.330634" id="Stroke-130" stroke="#A57129" stroke-width="0.59584" stroke-linecap="round" stroke-linejoin="round" mask="url(#mask-2)"></path>
                    <path d="M78.4026588,21.0693838 C67.5700538,20.4666584 68.0912127,32.789875 63.7117586,44.7239954 C63.7117586,44.7239954 58.2583421,58.3128566 56.5776631,62.3328619 C56.5944621,62.9115885 58.8959218,64.0178965 59.2338547,63.857773 C68.3506201,52.1002999 77.7685951,43.8974118 78.4026588,21.0693838" id="Fill-131" fill="#EF756C" mask="url(#mask-2)"></path>
                    <path d="M116.99776,37.962573 C118.073676,37.6151797 119.694582,37.119859 120.325911,36.1760351 C120.481008,35.943915 120.618525,35.6980251 120.800189,35.486363 C121.058034,35.1869674 121.394013,34.9697974 121.724914,34.7565617 L123.06766,33.8914226 C123.21846,33.7946403 123.419266,33.8387037 123.515763,33.9905654 C123.516935,33.9921391 123.517326,33.9937128 123.518498,33.9952865 C123.582177,34.0944293 123.605227,34.2313408 123.533343,34.3245823 C123.128996,34.8458689 122.827786,35.065006 122.291,35.6944843 C123.539594,35.0862509 124.17483,34.8258043 125.221054,33.8457854 C125.600789,33.4897368 126.375496,33.8536539 126.457537,34.6302726 C126.548564,35.4961986 126.472383,36.4482844 125.442957,37.4050913 C124.5866,38.2005944 123.454036,38.7706657 122.344132,39.1786462 C121.822192,39.3706371 121.155311,39.8045837 120.004777,40.6571332 C119.304689,41.1756659 119.335552,40.2794463 118.610852,40.7625708 C118.205333,40.0178194 117.847866,39.2463152 117.541187,38.4547463 C117.498995,38.3461613 116.887199,37.9983746 116.99776,37.962573" id="Fill-132" fill="#CA9D5E" mask="url(#mask-2)"></path>
                    <path d="M123.157749,36.3692849 C124.16686,35.9436003 125.15253,35.1642275 125.856524,34.3207267" id="Stroke-133" stroke="#A57129" stroke-width="0.804776" stroke-linecap="round" stroke-linejoin="round" mask="url(#mask-2)"></path>
                    <path d="M125.948528,35.8523653 C125.448075,36.4106338 124.574137,37.1675813 123.859204,37.5751685" id="Stroke-134" stroke="#A57129" stroke-width="0.804776" stroke-linecap="round" stroke-linejoin="round" mask="url(#mask-2)"></path>
                    <path d="M90.2857858,20.6976769 C91.8363704,29.0032487 93.3744534,44.202394 103.012768,48.2401034 C107.858296,50.1745686 119.489048,41.315056 120.598562,40.7107569 C120.97986,38.4060797 118.988986,36.5274807 118.988986,36.5274807 C92.3708123,51.8690454 108.389222,22.5318191 90.2857858,20.6976769" id="Fill-135" fill="#EF756C" mask="url(#mask-2)"></path>
                    <path d="M82.7641809,92.1680448 C86.0325585,82.9096004 86.4884749,77.7836805 88.228927,71.3138245" id="Stroke-136" stroke="#996100" stroke-width="1.568" stroke-linecap="round" stroke-linejoin="round" mask="url(#mask-2)"></path>
                    <path d="M74.692429,34.8038512 C75.3128192,38.0850065 74.2908163,41.4649112 73.6915226,42.4638144" id="Stroke-137" stroke="#E81E1E" stroke-width="1.568" stroke-linecap="round" stroke-linejoin="round" mask="url(#mask-2)"></path>
                    <path d="M94.7434528,4.60223335 C92.8990815,6.63702173 91.0140801,7.56392842 88.2922552,7.54897831 C88.2215432,7.67369368 86.9659174,7.54897831 86.7764406,8.31261409 C86.5561005,9.20057181 86.7319038,9.98505905 87.1553943,10.4115306 C87.5347386,10.7931517 87.0124076,14.8210255 86.6529877,16.3911803 C86.0052504,19.2214718 89.7283724,23.9004621 88.2774096,26.3278876 C86.9584946,28.5346022 82.3278373,29.008678 82.023893,30.1444927 C80.2631259,28.0361341 74.7108689,32.1592165 73.8756081,31.0989391 C72.4074557,31.1300196 72.6070901,24.2277908 72.8856405,22.541576 C73.3649974,19.2663221 74.7475922,17.7473125 76.1360471,16.0917847 C77.0013897,15.0598338 77.7116348,13.8909715 78.0304247,12.562379 C78.371483,11.1409385 78.2171668,9.66953309 78.4976707,8.24651887 C79.14658,4.95238062 81.2761432,1.59214715 84.4906078,0.476003568 C86.6568944,-0.275829491 89.3697337,-0.16960504 91.3848296,1.03112468 C93.5323638,2.3109326 94.8020539,4.66478775 94.7434528,4.60223335" id="Fill-138" fill="#333132" mask="url(#mask-2)"></path>
                    <path d="M92.2490783,4.61974072 C91.8908304,5.1217496 90.6660678,6.20720612 89.5479592,6.77019571" id="Stroke-139" stroke="#7F7E7D" stroke-width="0.717752" stroke-linecap="round" stroke-linejoin="round" mask="url(#mask-2)"></path>
                    <path d="M81.8470349,20.1661219 C82.2728695,19.5397911 82.7100335,18.9685396 83.1249292,18.4437121 C84.2063144,17.071843 84.3227352,15.6437142 84.3395342,14.1821445" id="Stroke-140" stroke="#7F7E7D" stroke-width="0.717752" stroke-linecap="round" stroke-linejoin="round" mask="url(#mask-2)"></path>
                    <path d="M75.9128942,20.9643003 C76.1773804,19.9866419 76.7415135,19.3520492 77.5814623,18.8036163" id="Stroke-141" stroke="#7F7E7D" stroke-width="0.717752" stroke-linecap="round" stroke-linejoin="round" mask="url(#mask-2)"></path>
                    <path d="M82.1114039,6.13926182 C80.919458,7.39979197 80.6217645,10.1608408 80.6807562,11.6007723" id="Stroke-142" stroke="#7F7E7D" stroke-width="0.717752" stroke-linecap="round" stroke-linejoin="round" mask="url(#mask-2)"></path>
                    <path d="M128.207131,27.0416372 C128.207131,27.0416372 130.611338,27.342213 131.069208,27.3803752 C131.849383,27.4460769 131.781015,27.7745859 131.607166,28.0436878 C131.413782,28.3438703 125.604852,37.4795665 125.604852,37.4795665 C125.604852,37.4795665 125.112994,37.9194144 124.678565,37.8025675 C124.243354,37.6857206 121.446129,37.1420088 121.446129,37.1420088" id="Stroke-143" stroke="#7F7E7D" stroke-width="0.661696" stroke-linecap="round" mask="url(#mask-2)"></path>
                    <path d="M130.33142,28.2503141 C130.266178,28.3777834 130.274382,28.496204 130.349,28.5146949 C130.423619,28.5331858 130.537305,28.4446655 130.602548,28.3171961 C130.6674,28.1897268 130.659977,28.0713062 130.584577,28.0532087 C130.509958,28.0347178 130.396663,28.1228447 130.33142,28.2503141" id="Fill-144" fill="#7F7E7D" mask="url(#mask-2)"></path>
                    <path d="M130.002551,28.7741973 C129.937308,28.9016667 129.945512,29.0200873 130.020131,29.0381848 C130.09475,29.0566757 130.208436,28.9685487 130.273288,28.8410794 C130.33853,28.71361 130.330717,28.5951894 130.255707,28.5766985 C130.181089,28.5582076 130.067403,28.646728 130.002551,28.7741973" id="Fill-145" fill="#7F7E7D" mask="url(#mask-2)"></path>
                    <path d="M124.45717,37.5405472 C124.912695,37.6314281 125.329154,37.507893 125.667868,36.9641812 L131.364284,27.8111743 C131.470156,27.6408218 131.365846,27.4169636 131.167775,27.3906042 L128.046681,26.9739683 C127.942762,26.959805 127.840015,27.0070159 127.782195,27.0947494 L121.339983,36.605772 C121.26888,36.7127833 121.247393,36.9051676 121.368111,36.9484442 C121.806838,37.1050269 123.696528,37.389079 124.45717,37.5405472" id="Fill-146" fill="#D62311" mask="url(#mask-2)"></path>
                    <path d="M126.574974,31.6076755 C126.444879,31.4518797 125.976852,31.3971938 125.701818,31.4495191 C125.568988,31.4746983 125.479524,31.5919386 125.492807,31.6847866 C125.521717,31.8870065 125.868635,31.9767071 126.176877,31.9519214 C126.252277,31.9460201 126.392529,31.9054974 126.473008,31.8413693 C126.505824,31.8150099 126.6367,31.6812458 126.574974,31.6076755 Z" id="Stroke-147" stroke="#FFFAF2" stroke-width="0.5" stroke-linecap="round" stroke-linejoin="round" mask="url(#mask-2)"></path>
                    <path d="M127.318934,32.2249183 C127.065387,32.2300328 126.762224,32.1666915 126.726282,31.9743073 C126.709873,31.8873606 126.78918,31.7535965 126.909117,31.729991 C127.216577,31.6697972 127.587717,31.712287 127.758442,31.9333912 C127.796337,31.9821757 127.712342,32.1104319 127.626394,32.1596099 C127.511927,32.2253117 127.493174,32.2213775 127.318934,32.2249183 Z" id="Stroke-148" stroke="#FFFAF2" stroke-width="0.5" stroke-linecap="round" stroke-linejoin="round" mask="url(#mask-2)"></path>
                    <path d="M127.52685,31.0949655 C127.38191,30.9431039 127.043587,30.8947128 126.766599,30.9962161 C126.697841,31.0213953 126.615408,31.0922116 126.588843,31.1945018 C126.56423,31.2873498 126.617362,31.4108849 126.894349,31.472259 C127.262755,31.5544846 127.49755,31.3939677 127.56123,31.3152829 C127.640146,31.2177138 127.565137,31.1350948 127.52685,31.0949655 Z" id="Stroke-149" stroke="#FFFAF2" stroke-width="0.5" stroke-linecap="round" stroke-linejoin="round" mask="url(#mask-2)"></path>
                    <path d="M128.224281,26.6722121 C128.224281,26.6722121 131.311386,27.0455714 131.557511,27.0715374 C131.773163,27.0939626 131.988815,27.233628 132.041556,27.4610271" id="Stroke-150" stroke="#FFFFFF" stroke-width="0.5" stroke-linecap="round" mask="url(#mask-2)"></path>
                    <path d="M118.028983,58.0815627 C118.838068,57.7593485 119.835849,57.6161422 120.261293,57.6657136 C120.362087,57.6771229 120.470694,57.7015152 120.535546,57.7802 C120.582427,57.8376399 120.598054,57.914751 120.605477,57.9891081 C120.664469,58.5646872 120.353492,59.1083991 120.026889,59.584442 C119.552611,60.2760812 119.020122,60.9264109 118.436456,61.5267757 C118.021169,61.0168984 116.95502,59.9833738 116.846804,59.3295033 C116.755777,58.7826441 117.3203,58.3632542 118.028983,58.0815627" id="Fill-151" fill="#8E6C43" mask="url(#mask-2)"></path>
                    <path d="M119.619533,58.7998367 C119.613673,58.7447574 119.602734,58.6873175 119.567964,58.6448277 C119.520693,58.5862075 119.440995,58.56811 119.367158,58.5594547 C119.056182,58.5224729 118.326012,58.6283039 117.734141,58.8671122 C117.339561,59.0260554 117.007097,59.2440123 116.899271,59.5178353 C117.102031,60.0552523 117.76227,60.760268 118.197871,61.2504741 C118.561198,60.8546897 118.895224,60.4309722 119.197215,59.984436 C119.435526,59.630748 119.662507,59.227095 119.619533,58.7998367" id="Fill-152" fill="#F2DDBB" mask="url(#mask-2)"></path>
                    <path d="M118.471186,72.9396488 C118.530178,73.2838947 118.425868,73.6332551 118.32273,73.9668786 L116.101359,81.1547331 C115.888051,81.8444052 115.430572,82.8381939 115.011379,83.4243955 C114.591795,84.0105971 114.168695,84.1797694 113.451418,84.1652127 C113.040038,84.1569508 112.562635,83.8819475 112.594279,83.468459 C112.617329,83.1722108 112.884159,82.9680238 113.092786,82.7579354 C113.902646,81.9431546 113.99758,80.6716085 113.997189,79.51927 C113.996799,78.5888224 113.965935,77.6587684 113.9046,76.7306814 C113.821777,75.4827408 113.693636,74.1722458 114.203074,73.03171 C114.914882,71.4375564 118.071527,70.614907 118.471186,72.9396488" id="Fill-153" fill="#8E6C43" mask="url(#mask-2)"></path>
                    <path d="M120.367322,72.9980722 C120.426705,73.3423181 120.322395,73.6916785 120.219257,74.025302 C119.47893,76.4212535 118.737821,78.817205 117.997494,81.2131565 C117.784186,81.9028286 117.327098,82.8966174 116.907905,83.482819 C116.488321,84.0690206 116.065221,84.2381928 115.347944,84.2236362 C114.936174,84.2153743 114.459161,83.940371 114.490806,83.5272759 C114.513465,83.2306342 114.780686,83.0264472 114.989312,82.8163589 C115.798782,82.0019714 115.894106,80.730032 115.893716,79.5776934 C115.893325,78.6472459 115.862462,77.7171918 115.800735,76.7891049 C115.718303,75.5411643 115.590162,74.2310627 116.099601,73.0901334 C116.811018,71.4959798 119.968053,70.6737239 120.367322,72.9980722" id="Fill-154" fill="#A38254" mask="url(#mask-2)"></path>
                    <path d="M133.506388,66.6855859 C134.739745,67.2009712 135.927003,67.8276954 137.049409,68.5559231 C139.59543,70.2071231 142.008232,72.4571144 145.027751,72.6868739 C145.990762,72.7600508 146.810786,72.5019647 147.673785,72.0644773 C148.562568,71.614007 149.20171,70.827946 149.947116,70.1638465 C150.066271,70.057622 150.192459,69.9478568 150.347166,69.9124486 C150.778079,69.8148795 151.105855,70.3349859 151.1207,70.7795549 C151.152735,71.7422632 150.449132,72.5562572 149.752951,73.2168159 C149.338837,73.609453 148.91144,73.9879267 148.471541,74.3506636 C147.285846,75.3283219 145.733698,75.6426676 144.22765,75.3574353 C142.721603,75.0725964 141.356979,74.2944039 140.056035,73.4792296 C138.894171,72.7513954 137.75731,71.9838254 136.647015,71.1784867 C135.120652,70.070605 133.541939,68.7223414 133.111807,66.9051164 L133.506388,66.6855859 Z" id="Fill-155" fill="#A38254" mask="url(#mask-2)"></path>
                    <path d="M124.227883,77.6542047 C125.984744,78.8993913 128.153765,79.2613413 130.264576,78.859262 C130.472805,79.7688581 129.575818,81.8260716 128.675705,82.2623787 C128.034609,82.5731836 127.719726,82.8324499 127.83185,83.2966901 C128.051799,84.1618293 128.733525,84.0575719 129.280078,84.0402613 C130.09893,84.0139019 130.429049,84.0146887 130.773233,83.5874304 C130.979118,83.330918 131.068583,83.0016222 131.152577,82.6825554 C131.720227,80.528953 133.056722,78.334828 133.62398,76.1812256 C133.702896,75.8814366 133.782203,75.5659106 133.707194,75.2649414 C133.584132,74.7723746 133.097743,74.4769133 132.790673,74.0736538 C132.286313,73.4115214 132.293736,72.5058596 132.256622,71.6718009 C132.218726,70.8381357 132.05269,69.9006066 131.364713,69.4355795 C131.013107,69.1983449 130.579459,69.1267418 130.158703,69.0846454 C127.51931,68.8202646 124.107946,69.5323618 122.122151,71.4400743 C120.390684,73.1026836 122.717538,76.5833048 124.227883,77.6542047" id="Fill-156" fill="#8E6C43" mask="url(#mask-2)"></path>
                    <path d="M137.434496,69.1792639 C137.933387,70.6565706 137.393085,71.4162721 136.681668,72.8023045 C135.970641,74.1883369 133.247254,76.6551047 130.023022,77.1850467 C125.44159,77.9376666 120.570277,77.609551 116.211138,76.0028079 C115.323527,75.6754792 114.441386,75.3029068 113.677618,74.7422777 C112.914241,74.1808618 112.271974,73.4117181 112.010613,72.497401 C111.689869,71.3737823 111.967248,70.1785606 112.037179,69.0116653 C112.119611,67.6287803 111.901615,66.2285847 111.401552,64.9377609 C113.166617,64.0088871 115.150068,63.4667489 117.124924,63.7232613 C117.703122,63.7987987 118.275459,63.9258746 118.857172,63.9695447 C119.576403,64.0234438 121.033616,65.1848311 121.754019,65.1549309 C125.632629,64.9952008 129.340906,65.4393763 133.049963,66.5909281 C134.668525,67.0937238 136.889115,67.5646522 137.434496,69.1792639" id="Fill-157" fill="#A38254" mask="url(#mask-2)"></path>
                    <path d="M111.344045,65.619053 C110.433775,64.7952234 109.870423,63.5944937 109.81651,62.3630769 C109.791507,61.798907 109.873158,61.2209673 110.125533,60.7165979 C110.377908,60.2126219 110.835778,59.8487048 111.349514,59.6216992 C112.782897,58.9878933 113.546664,58.3725784 114.826512,58.2982212 C115.8282,58.2399945 116.897474,58.3855613 117.680775,59.0166133 C118.384379,59.5839305 118.759426,60.4573316 119.108297,61.2945376 C119.454825,62.1258423 119.807213,63.0350449 119.572418,63.9052986 C119.420446,64.4682881 119.039148,64.9364626 118.655116,65.3735565 C118.101922,66.0030348 117.488954,66.6077273 116.723233,66.9421376 C114.567104,67.8832075 111.592123,65.8436981 111.344045,65.619053" id="Fill-158" fill="#A38254" mask="url(#mask-2)"></path>
                    <path d="M116.94623,61.9213012 C116.727062,61.377196 116.672758,60.7634547 116.359829,60.2677406 C116.305916,60.182761 116.235594,60.0958143 116.136754,60.0792905 C115.976968,60.0525377 115.854297,60.2169889 115.787101,60.3657031 C115.326887,61.3889987 115.501127,62.695166 114.762754,63.5370931 C114.327934,64.0339875 113.641129,64.2743695 113.269598,64.8204419 C112.966826,65.2654043 112.926977,65.8500322 113.041835,66.3768268 C113.060588,66.4629866 113.080512,66.5467859 113.10239,66.6274378 C114.181822,67.0960057 115.569886,67.4457595 116.723155,66.9421769 C117.463092,66.6191759 118.060041,66.0439902 118.59839,65.4373305 C118.617533,65.2701254 118.617142,65.1005597 118.594483,64.9313874 C118.438995,63.7865239 117.377534,62.992201 116.94623,61.9213012" id="Fill-159" fill="#F2DDBB" mask="url(#mask-2)"></path>
                    <path d="M129.058292,77.7281683 C130.814762,78.9737484 133.111924,79.3046179 135.222735,78.9021452 C135.430964,79.8113479 135.174682,81.8591192 134.27496,82.2958197 C133.633474,82.6066246 133.3182,82.865891 133.430323,83.3301312 C133.650663,84.1952703 134.332389,84.091013 134.878551,84.0737023 C135.698185,84.0473429 136.027914,84.0481298 136.372098,83.6208714 C136.578373,83.364359 136.667447,83.0350632 136.751442,82.7159965 C137.319091,80.5623941 137.88674,78.4087917 138.454389,76.2551893 C138.533305,75.9554003 138.612612,75.6398743 138.537603,75.338905 C138.41415,74.8463383 137.927761,74.550877 137.620691,74.1476175 C137.116331,73.4854851 137.124145,72.5798233 137.08664,71.7461581 C137.049135,70.9120994 136.882708,69.9749637 136.194732,69.5099366 C135.843516,69.272702 135.409477,69.2007055 134.989112,69.1586091 C132.349329,68.8942283 128.938355,69.6067189 126.952169,71.514038 C125.220703,73.1770408 127.547947,76.6576619 129.058292,77.7281683" id="Fill-160" fill="#A38254" mask="url(#mask-2)"></path>
                    <path d="M110.12358,59.5340444 C110.528318,58.3581004 111.036975,57.2179579 111.641738,56.1325014 C111.753471,55.9314618 111.901146,55.7099641 112.128518,55.6855719 C112.331278,55.6639335 112.510206,55.8106807 112.656318,55.9538869 C113.371252,56.6569354 113.936557,57.5138127 114.301446,58.450555 C113.84006,59.0615423 113.176305,59.4793584 112.528177,59.8837982 L111.175274,60.727299 C110.016144,61.4504122 109.764941,60.5754374 110.12358,59.5340444" id="Fill-161" fill="#8E6C43" mask="url(#mask-2)"></path>
                    <path d="M112.528256,59.8836802 C112.927524,59.6346429 113.333044,59.3800976 113.693245,59.0783415 C113.361954,58.401259 112.953309,57.7631254 112.477077,57.1804646 C112.432931,57.1265655 112.375502,57.0679454 112.306744,57.0758139 C112.24697,57.0828955 112.20595,57.1379748 112.172742,57.1879397 C111.704324,57.8988566 110.651068,59.838043 111.023771,60.7287547 C111.034319,60.753147 111.045258,60.7759656 111.056587,60.7976039 C111.095264,60.7759656 111.134722,60.7527536 111.175352,60.7275744 L112.528256,59.8836802 Z" id="Fill-162" fill="#F2DDBB" mask="url(#mask-2)"></path>
                    <path d="M116.832544,63.1544097 C116.469217,63.2212918 116.101593,63.2157838 115.735532,63.2547328 C115.398771,63.2905344 116.171133,64.0592847 116.340686,64.1914751 C116.643458,64.427136 117.426759,63.0450379 116.832544,63.1544097" id="Fill-163" fill="#1A1A1A" mask="url(#mask-2)"></path>
                    <path d="M121.567941,62.4426666 C120.806908,62.5886268 120.062284,62.7963546 119.314143,62.9973942 C118.663672,63.1720744 117.962412,63.2924622 117.354523,63.5879235 C117.331083,63.5989394 117.343194,63.6308067 117.367025,63.629233 C118.122979,63.5761208 118.890653,63.2885279 119.623167,63.0937831 C120.285359,62.9179226 120.943644,62.7444227 121.591381,62.5209579 C121.635528,62.5056144 121.612478,62.4340112 121.567941,62.4426666" id="Fill-164" fill="#1A1A1A" mask="url(#mask-2)"></path>
                    <path d="M121.642716,63.5658918 C120.185893,63.5383521 118.678673,63.6701491 117.228883,63.8145357 C117.202317,63.8172896 117.203489,63.8625334 117.230836,63.8625334 C118.68844,63.8526978 120.199567,63.8263384 121.645451,63.64497 C121.689597,63.639462 121.688034,63.5666786 121.642716,63.5658918" id="Fill-165" fill="#1A1A1A" mask="url(#mask-2)"></path>
                    <path d="M122.313034,61.6899941 C121.468007,61.707318 120.625714,61.9512408 119.831083,62.2301783 C119.001683,62.5217054 118.002729,62.8923107 117.36554,63.5166744 C117.354992,63.5269035 117.36515,63.5438207 117.379605,63.5390996 C118.15939,63.2609489 118.871979,62.7786112 119.655671,62.4847236 C120.528045,62.1573949 121.421516,62.0114346 122.31616,61.7789211 C122.361087,61.7671184 122.367338,61.688827 122.313034,61.6899941" id="Fill-166" fill="#1A1A1A" mask="url(#mask-2)"></path>
                    <path d="M115.588795,63.6845878 C114.421461,63.2175936 112.963466,62.9630483 111.716045,63.1943816 C111.671508,63.2026435 111.671898,63.2726729 111.71917,63.2762138 C113.044336,63.3686684 114.272614,63.4304359 115.583716,63.7081932 C115.59739,63.7109472 115.600906,63.6897023 115.588795,63.6845878" id="Fill-167" fill="#1A1A1A" mask="url(#mask-2)"></path>
                    <path d="M115.417523,63.8628481 C114.202137,63.8396361 112.798446,63.9344513 111.616267,64.2102414 C111.58931,64.2165362 111.587747,64.259026 111.617829,64.2605997 C112.830872,64.331416 114.230656,64.1862426 115.420649,63.956483 C115.471046,63.9466474 115.472608,63.8640284 115.417523,63.8628481" id="Fill-168" fill="#1A1A1A" mask="url(#mask-2)"></path>
                    <path d="M115.571644,64.1854164 C114.300001,64.3691453 113.057267,64.9423639 111.984477,65.6363637 C111.966115,65.647773 111.985649,65.6780666 112.004792,65.6686244 C113.176813,65.0824228 114.362899,64.6945069 115.599773,64.2794447 C115.654467,64.2613472 115.625166,64.1775479 115.571644,64.1854164" id="Fill-169" fill="#1A1A1A" mask="url(#mask-2)"></path>
                    <path d="M122.555682,67.6061584 C122.528725,67.4082662 122.63577,67.2147017 122.746331,67.2607323 L123.257332,67.4716075 C123.34289,67.507409 123.58667,67.9452898 123.531976,68.0810211 C123.335076,68.2974042 123.078013,68.2977976 122.900647,68.0814145 C122.900647,68.0814145 122.588108,67.8422128 122.555682,67.6061584" id="Fill-170" fill="#D8B781" mask="url(#mask-2)"></path>
                    <path d="M120.820934,66.8362279 C120.684198,66.8016066 120.581841,66.6013538 120.549415,66.3652995 C120.522068,66.1674073 120.629503,65.9738427 120.740064,66.0194799 C120.740064,66.0194799 121.425697,66.3047122 121.488986,66.4089695 C121.552275,66.5132269 121.580013,66.7044309 121.525709,66.8397687 C121.32881,67.0569387 120.820934,66.8362279 120.820934,66.8362279" id="Fill-171" fill="#D8B781" mask="url(#mask-2)"></path>
                    <path d="M129.569528,68.8010261 C129.443731,68.6279196 129.446856,68.3898982 129.574607,68.3761283 L130.164524,68.3131805 C130.263365,68.3025581 130.367284,68.2931159 130.480189,68.3588177 C130.593093,68.4245195 130.716546,68.5913312 130.733345,68.7475205 C130.657164,69.0536043 130.414555,69.1861881 130.137177,69.072882 C130.137177,69.072882 129.720328,69.0075737 129.569528,68.8010261" id="Fill-172" fill="#D8B781" mask="url(#mask-2)"></path>
                    <path d="M134.69177,68.8985953 C134.589414,68.7199808 134.698021,68.4933687 134.883982,68.4941535 L135.744246,68.4969095 C135.888404,68.4973029 136.038814,68.49927 136.169689,68.5740205 C136.300174,68.6487711 135.714945,69.3561472 135.373105,69.2184489 C135.373105,69.2184489 134.81366,69.111831 134.69177,68.8985953" id="Fill-173" fill="#D8B781" mask="url(#mask-2)"></path>
                    <path d="M125.220234,69.2524801 C125.065918,69.2131377 124.949888,68.9865255 124.913164,68.7193907 C124.882301,68.4955325 125.706623,68.5675291 125.706623,68.5675291 C125.80351,68.6072649 125.904304,68.6513283 125.976578,68.7689621 C126.048072,68.8865958 126.079326,69.1033724 126.017599,69.2564143 C125.794915,69.5019108 125.220234,69.2524801 125.220234,69.2524801" id="Fill-174" fill="#D8B781" mask="url(#mask-2)"></path>
                    <path d="M132.612487,69.1787131 C132.747269,69.0976678 132.984408,69.173992 133.194981,69.3345089 C133.371175,69.4690599 133.437981,69.7062945 133.315309,69.7582265 L132.74766,69.9970348 C132.652335,70.037164 132.117112,69.8853024 132.054214,69.7354079 C132.039759,69.4080792 132.612487,69.1787131 132.612487,69.1787131" id="Fill-175" fill="#D8B781" mask="url(#mask-2)"></path>
                    <path d="M127.298736,67.9010296 C127.151452,67.8636544 127.040891,67.6472712 127.005731,67.392726 C126.97643,67.1787034 127.09207,66.9697953 127.211225,67.0193667 L127.762857,67.2475526 C127.855446,67.2857147 127.951552,67.3274176 128.020311,67.4399368 C128.088679,67.5520626 128.11876,67.7586102 128.059378,67.9049639 C127.846851,68.1390511 127.298736,67.9010296 127.298736,67.9010296" id="Fill-176" fill="#D8B781" mask="url(#mask-2)"></path>
                    <path d="M125.246175,65.8474749 C125.380957,65.7664296 125.618487,65.8427539 125.828669,66.0032708 C126.004863,66.1374284 126.072059,66.3750564 125.948997,66.4269883 L125.381348,66.6657966 C125.286414,66.7059259 124.7508,66.5540643 124.687902,66.4037763 C124.673447,66.0768411 125.246175,65.8474749 125.246175,65.8474749" id="Fill-177" fill="#D8B781" mask="url(#mask-2)"></path>
                    <path d="M112.480203,70.4588751 C112.377846,70.2802606 112.486453,70.0536485 112.672805,70.0544333 L113.532678,70.0571893 C113.676837,70.0571893 113.827637,70.0595498 113.958122,70.1343004 C114.088607,70.2090509 113.503768,70.9164271 113.161929,70.7787287 C113.161929,70.7787287 112.602093,70.6721108 112.480203,70.4588751" id="Fill-178" fill="#D8B781" mask="url(#mask-2)"></path>
                    <path d="M114.498424,71.4489656 C114.471467,71.2510734 114.578121,71.0575089 114.688682,71.1035395 L115.199684,71.3144147 C115.285241,71.3498228 115.529022,71.788097 115.474327,71.9234349 C115.277428,72.1402114 115.020755,72.1406048 114.843389,71.9242217 C114.843389,71.9242217 114.53085,71.68502 114.498424,71.4489656" id="Fill-179" fill="#D8B781" mask="url(#mask-2)"></path>
                    <path d="M131.751012,67.9797931 C131.614276,67.9451718 131.511919,67.744919 131.479493,67.5088647 C131.452146,67.3109725 131.559581,67.1174079 131.670142,67.1630451 C131.670142,67.1630451 132.355384,67.4482774 132.419064,67.5525348 C132.482353,67.6567921 132.510091,67.8479961 132.455787,67.9833339 C132.258888,68.2001105 131.751012,67.9797931 131.751012,67.9797931" id="Fill-180" fill="#D8B781" mask="url(#mask-2)"></path>
                    <path d="M134.364815,77.7783299 C134.337859,77.5804377 134.444903,77.3868731 134.555464,77.4329037 L135.066465,77.6437789 C135.152023,77.6795805 135.395804,78.1174613 135.341109,78.2527991 C135.14421,78.4695757 134.887146,78.4699691 134.70978,78.253586 C134.70978,78.253586 134.397241,78.0143842 134.364815,77.7783299" id="Fill-181" fill="#D8B781" mask="url(#mask-2)"></path>
                    <path d="M132.630028,77.00836 C132.493683,76.9737387 132.390935,76.7734859 132.35851,76.5374316 C132.331162,76.3395394 132.438598,76.1459748 132.549158,76.191612 C132.549158,76.191612 133.234791,76.4768443 133.29808,76.5811016 C133.36176,76.685359 133.389107,76.876563 133.334804,77.0119008 C133.137904,77.2290708 132.630028,77.00836 132.630028,77.00836" id="Fill-182" fill="#D8B781" mask="url(#mask-2)"></path>
                    <path d="M137.05566,76.0194497 C137.190051,75.9387978 137.427581,76.015122 137.637764,76.1752456 C137.814348,76.3097965 137.881153,76.5474246 137.758482,76.5989631 L137.190442,76.8377714 C137.095508,76.8779006 136.560285,76.726039 136.496996,76.5761445 C136.482541,76.2488158 137.05566,76.0194497 137.05566,76.0194497" id="Fill-183" fill="#D8B781" mask="url(#mask-2)"></path>
                    <path d="M53.8798647,70.670183 C53.3383907,69.7727832 52.6508047,68.9749195 51.8507046,68.3096397 C51.507693,68.0244074 51.1435849,67.7639608 50.7622872,67.530267 C50.6345369,67.452369 50.5052238,67.3772251 50.3739574,67.3056219 C50.1114246,67.1620222 49.8414689,67.031012 49.5644812,66.9129849 C49.2874934,66.7949577 49.0038642,66.690307 48.7135935,66.599426 C47.8439534,66.3267833 46.9188377,66.1800362 45.960124,66.1800362 L36.3960371,66.1800362 L34.1797442,66.1800362 L33.2835384,66.1800362 L31.2160923,66.1800362 L22.5212546,66.1800362 C22.2071528,67.0491095 21.9196169,67.9225106 21.6609908,68.7939445 C20.9007394,71.357888 20.2201855,74.2586024 18.4476982,75.6772889 C16.6392689,77.124302 14.4245387,76.4920698 12.2426252,76.0073716 L12.2426252,76.7017647 L12.2426252,79.8054858 L12.2426252,96.524821 C12.2426252,96.6023255 12.2516107,96.6774695 12.2539547,96.7545806 L12.2543454,96.7545806 L15.8258859,96.7545806 C15.9532456,96.7545806 16.0770892,96.7675635 16.1989794,96.7876282 C16.2161691,96.7903821 16.2337494,96.7923493 16.250939,96.7954966 C16.3661878,96.817135 16.4771392,96.8486089 16.5853559,96.886771 C16.6052802,96.8934592 16.6248139,96.9009342 16.6443476,96.9084093 C16.7513923,96.9493254 16.8545302,96.9973231 16.95298,97.0531893 C16.9678256,97.0618446 16.9818899,97.0708934 16.9963448,97.0799421 C17.1998859,97.2019035 17.3831119,97.3541586 17.5393815,97.5311993 C17.5511017,97.5437889 17.5624312,97.5555916 17.5729794,97.5685746 C17.6464261,97.654341 17.7120593,97.7464022 17.7718324,97.842791 C17.783162,97.8604951 17.7937102,97.8781992 17.8042583,97.8962967 C17.8616874,97.9942592 17.9128657,98.096156 17.9554491,98.2031673 C17.9620906,98.2189043 17.9667787,98.2350347 17.9730295,98.2507716 C18.0683539,98.5053169 18.1230482,98.7799268 18.1230482,99.067913 C18.1230482,99.3558993 18.0683539,99.6301158 17.9730295,99.884661 C17.9667787,99.9007914 17.9620906,99.9169218 17.9554491,99.9326588 C17.9128657,100.039277 17.8616874,100.141173 17.8042583,100.239529 C17.7937102,100.257627 17.783162,100.275331 17.7718324,100.293035 C17.7120593,100.389424 17.6464261,100.481092 17.5729794,100.567252 C17.5624312,100.579841 17.5511017,100.592037 17.5393815,100.604627 C17.3831119,100.781668 17.1998859,100.933923 16.9963448,101.055884 C16.9818899,101.064539 16.9678256,101.073981 16.95298,101.082243 C16.8545302,101.13811 16.7513923,101.186107 16.6443476,101.227023 C16.6248139,101.234498 16.6052802,101.241973 16.5853559,101.249055 C16.4771392,101.287217 16.3657972,101.318298 16.250939,101.339936 C16.2337494,101.343083 16.2165597,101.345051 16.1989794,101.348198 C16.0774798,101.367869 15.9532456,101.381246 15.8258859,101.381246 L14.4042237,101.381246 C14.4065677,101.383213 14.4093024,101.38518 14.4120371,101.387147 C14.5386155,101.501633 14.6710539,101.609825 14.8062271,101.713689 C14.9003795,101.784898 14.9976573,101.851387 15.0949351,101.917876 C15.1351745,101.945415 15.1742419,101.973742 15.2148719,102.000495 C15.343013,102.083114 15.4742794,102.161405 15.6082805,102.235369 C15.6168754,102.24009 15.6250795,102.245204 15.6336743,102.249925 C15.777833,102.32861 15.925117,102.402181 16.0751358,102.470636 C16.2384375,102.5446 16.4052552,102.611875 16.5751984,102.672463 C16.5787144,102.673643 16.5818398,102.674823 16.5849652,102.676004 C16.7521736,102.735017 16.9225074,102.787736 17.0955759,102.83298 C17.1022174,102.834947 17.1092495,102.836521 17.115891,102.838094 C17.2873968,102.882551 17.4616374,102.920713 17.6386126,102.950613 C17.6448634,102.951794 17.6511142,102.952581 17.657365,102.953761 C17.8362936,102.983661 18.017957,103.006873 18.2019643,103.021823 C18.344951,103.033232 18.4879376,103.044642 18.633659,103.047002 C18.6383471,103.047002 18.6430351,103.047789 18.6477232,103.047789 C18.6735077,103.048183 18.6981202,103.051723 18.7239046,103.051723 L20.8980047,103.051723 L46.5652779,103.051723 L48.739378,103.051723 C48.7651624,103.051723 48.7897749,103.048183 48.8155594,103.047789 C48.8725977,103.047002 48.9272921,103.040314 48.9839398,103.037954 C49.0765295,103.032839 49.1691192,103.029298 49.2613182,103.021823 C49.4039142,103.010414 49.5449475,102.992316 49.6855901,102.971858 C49.7234854,102.96635 49.7617715,102.960842 49.8000575,102.954548 C49.9196037,102.934876 50.0379779,102.912058 50.1555707,102.886092 C50.2297988,102.869175 50.3036361,102.85029 50.3766921,102.831013 C50.4638124,102.808194 50.5513234,102.786162 50.6368809,102.759803 C50.8013546,102.709445 50.963875,102.653972 51.1220979,102.590631 C51.1232699,102.590237 51.1244419,102.589844 51.1252233,102.58945 C51.4436225,102.462374 51.7467854,102.306185 52.0378374,102.131898 C52.4019455,101.913548 52.7453478,101.664511 53.0586682,101.381246 L51.6373967,101.381246 C51.3201695,101.381246 51.0181786,101.316331 50.7431442,101.199484 C49.9188224,100.848156 49.3402344,100.0259 49.3402344,99.067913 C49.3402344,98.1095324 49.9188224,97.2872765 50.7431442,96.9363424 C50.94942,96.8486089 51.1709321,96.7899887 51.402211,96.7663833 C51.4795645,96.7585148 51.5580899,96.7545806 51.6373967,96.7545806 L55.2089372,96.7545806 C55.2112813,96.6876985 55.2171414,96.6216033 55.2190947,96.5547212 C55.2190947,96.5448856 55.2206574,96.53505 55.2206574,96.524821 L55.2206574,79.8054858 L55.2206574,76.7017647 L55.2206574,75.5116575 L55.2206574,75.5061495 C55.2206574,73.7353486 54.7307524,72.0802143 53.8798647,70.670183" id="Fill-184" fill="#D8B781" mask="url(#mask-2)"></path>
                </g>
            </g>
        </g>
    </g>
</svg>